<?xml version="1.0" encoding="UTF-8"?>
<svg version="1.1" xmlns="http://www.w3.org/2000/svg" width="200" height="200">
<path d="M0 0 C66 0 132 0 200 0 C200 66 200 132 200 200 C134 200 68 200 0 200 C0 134 0 68 0 0 Z " fill="#AF0D2C" transform="translate(0,0)"/>
<path d="M0 0 C66 0 132 0 200 0 C200 66 200 132 200 200 C134 200 68 200 0 200 C0 134 0 68 0 0 Z M8 8 C8 57.5 8 107 8 158 C68.39 158 128.78 158 191 158 C191 108.5 191 59 191 8 C130.61 8 70.22 8 8 8 Z " fill="#FEFDFB" transform="translate(0,0)"/>
<path d="M0 0 C23.71258049 -0.02311633 47.42515829 -0.04097785 71.13774776 -0.05181217 C82.1470929 -0.0569757 93.15643092 -0.06401948 104.16577148 -0.07543945 C113.75781892 -0.08538456 123.34986121 -0.09185301 132.94191366 -0.09408849 C138.02415292 -0.0953959 143.10637744 -0.09848361 148.18861198 -0.10573006 C152.96635671 -0.11248754 157.74408055 -0.11461752 162.52182961 -0.11310768 C164.28071074 -0.11338413 166.03959253 -0.11539086 167.79846954 -0.11920547 C170.1891131 -0.12413848 172.57967646 -0.12299976 174.97032166 -0.12025452 C175.6755614 -0.12316736 176.38080115 -0.1260802 177.1074118 -0.12908131 C181.88587879 -0.11412121 181.88587879 -0.11412121 183 1 C183 11.23 183 21.46 183 32 C122.61 32 62.22 32 0 32 C0 21.44 0 10.88 0 0 Z " fill="#F9CA16" transform="translate(8,162)"/>
<path d="M0 0 C9.18893247 4.92495675 17.38200638 12.3218004 20.76953125 22.484375 C20.43953125 23.144375 20.10953125 23.804375 19.76953125 24.484375 C19.13337891 23.41509766 19.13337891 23.41509766 18.484375 22.32421875 C12.25495983 12.15178914 6.76901278 6.28696553 -4.23046875 1.484375 C-2.98207302 2.90245559 -1.73167654 4.31877495 -0.48046875 5.734375 C0.215625 6.52328125 0.91171875 7.3121875 1.62890625 8.125 C5.6735293 12.58294219 9.85917434 16.10669422 14.74609375 19.60546875 C17.04516243 21.74031824 17.82497366 23.52374556 18.76953125 26.484375 C18.32222656 26.08605469 17.87492187 25.68773438 17.4140625 25.27734375 C14.02173186 22.30453375 10.75112901 19.6561556 6.76953125 17.484375 C7.12015625 18.226875 7.47078125 18.969375 7.83203125 19.734375 C8.84154105 22.69560375 8.64934009 23.60500061 7.76953125 26.484375 C7.09866005 24.8611063 6.43296096 23.23569922 5.76953125 21.609375 C5.39828125 20.70445313 5.02703125 19.79953125 4.64453125 18.8671875 C3.76953125 16.484375 3.76953125 16.484375 3.76953125 14.484375 C-0.19046875 13.494375 -4.15046875 12.504375 -8.23046875 11.484375 C-8.23046875 11.154375 -8.23046875 10.824375 -8.23046875 10.484375 C-5.26046875 10.814375 -2.29046875 11.144375 0.76953125 11.484375 C-2.17394329 6.68760167 -4.99844867 2.53259773 -10.54296875 0.734375 C-11.09984375 0.651875 -11.65671875 0.569375 -12.23046875 0.484375 C-11.57046875 2.134375 -10.91046875 3.784375 -10.23046875 5.484375 C-10.89046875 5.484375 -11.55046875 5.484375 -12.23046875 5.484375 C-13.5832499 3.49747769 -14.9161518 1.49692282 -16.23046875 -0.515625 C-16.89046875 -0.845625 -17.55046875 -1.175625 -18.23046875 -1.515625 C-18.23046875 2.114375 -18.23046875 5.744375 -18.23046875 9.484375 C-18.56046875 9.484375 -18.89046875 9.484375 -19.23046875 9.484375 C-19.72546875 4.039375 -19.72546875 4.039375 -20.23046875 -1.515625 C-23.18796666 1.95178634 -25.30895027 5.35311027 -27.23046875 9.484375 C-27.91796875 7.859375 -27.91796875 7.859375 -28.23046875 5.484375 C-26.79296875 2.234375 -26.79296875 2.234375 -25.23046875 -0.515625 C-31.0557776 2.69273038 -35.20168656 6.1889681 -39.23046875 11.484375 C-37.58046875 11.484375 -35.93046875 11.484375 -34.23046875 11.484375 C-36.23046875 13.484375 -36.23046875 13.484375 -41.23046875 14.484375 C-42.22046875 18.114375 -43.21046875 21.744375 -44.23046875 25.484375 C-42.91046875 25.154375 -41.59046875 24.824375 -40.23046875 24.484375 C-38.64835302 24.41889008 -37.06376794 24.39859119 -35.48046875 24.421875 C-34.68125 24.43089844 -33.88203125 24.43992187 -33.05859375 24.44921875 C-32.4553125 24.46082031 -31.85203125 24.47242187 -31.23046875 24.484375 C-31.23046875 22.834375 -31.23046875 21.184375 -31.23046875 19.484375 C-30.90046875 20.804375 -30.57046875 22.124375 -30.23046875 23.484375 C-26.60046875 23.484375 -22.97046875 23.484375 -19.23046875 23.484375 C-19.23046875 19.194375 -19.23046875 14.904375 -19.23046875 10.484375 C-18.90046875 10.484375 -18.57046875 10.484375 -18.23046875 10.484375 C-18.23046875 14.774375 -18.23046875 19.064375 -18.23046875 23.484375 C-16.06484375 23.4534375 -16.06484375 23.4534375 -13.85546875 23.421875 C-9.48046875 23.359375 -9.48046875 23.359375 -7.23046875 24.484375 C-6.90046875 23.164375 -6.57046875 21.844375 -6.23046875 20.484375 C-6.23046875 21.804375 -6.23046875 23.124375 -6.23046875 24.484375 C-4.58046875 24.484375 -2.93046875 24.484375 -1.23046875 24.484375 C-1.23046875 24.814375 -1.23046875 25.144375 -1.23046875 25.484375 C-2.88046875 25.484375 -4.53046875 25.484375 -6.23046875 25.484375 C-5.73546875 26.474375 -5.73546875 26.474375 -5.23046875 27.484375 C-5.09487557 30.48911997 -5.18747859 33.47506347 -5.23046875 36.484375 C-0.61046875 36.484375 4.00953125 36.484375 8.76953125 36.484375 C8.76953125 34.504375 8.76953125 32.524375 8.76953125 30.484375 C9.09953125 30.484375 9.42953125 30.484375 9.76953125 30.484375 C9.76953125 32.464375 9.76953125 34.444375 9.76953125 36.484375 C13.72953125 36.484375 17.68953125 36.484375 21.76953125 36.484375 C21.76953125 34.834375 21.76953125 33.184375 21.76953125 31.484375 C22.09953125 31.484375 22.42953125 31.484375 22.76953125 31.484375 C22.76953125 35.114375 22.76953125 38.744375 22.76953125 42.484375 C20.76953125 39.484375 20.76953125 39.484375 20.76953125 37.484375 C17.13953125 37.484375 13.50953125 37.484375 9.76953125 37.484375 C9.76953125 39.134375 9.76953125 40.784375 9.76953125 42.484375 C9.43953125 42.484375 9.10953125 42.484375 8.76953125 42.484375 C8.76953125 40.834375 8.76953125 39.184375 8.76953125 37.484375 C4.14953125 37.484375 -0.47046875 37.484375 -5.23046875 37.484375 C-5.23046875 39.134375 -5.23046875 40.784375 -5.23046875 42.484375 C-5.56046875 42.484375 -5.89046875 42.484375 -6.23046875 42.484375 C-6.23046875 40.834375 -6.23046875 39.184375 -6.23046875 37.484375 C-10.19046875 37.484375 -14.15046875 37.484375 -18.23046875 37.484375 C-18.23046875 41.114375 -18.23046875 44.744375 -18.23046875 48.484375 C-14.93046875 48.484375 -11.63046875 48.484375 -8.23046875 48.484375 C-8.23046875 48.814375 -8.23046875 49.144375 -8.23046875 49.484375 C-11.53046875 49.484375 -14.83046875 49.484375 -18.23046875 49.484375 C-18.11670258 51.61000603 -17.98911244 53.7349011 -17.85546875 55.859375 C-17.75105469 57.63441406 -17.75105469 57.63441406 -17.64453125 59.4453125 C-17.52829529 62.58999819 -17.52829529 62.58999819 -15.23046875 64.484375 C-16.22046875 64.484375 -17.21046875 64.484375 -18.23046875 64.484375 C-18.23046875 68.114375 -18.23046875 71.744375 -18.23046875 75.484375 C-17.30234375 74.494375 -17.30234375 74.494375 -16.35546875 73.484375 C-14.23046875 71.484375 -14.23046875 71.484375 -12.23046875 71.484375 C-11.90046875 72.144375 -11.57046875 72.804375 -11.23046875 73.484375 C-5.30143664 70.29181925 -1.81711861 67.20059822 1.76953125 61.484375 C0.44953125 61.154375 -0.87046875 60.824375 -2.23046875 60.484375 C-1.32296875 60.195625 -0.41546875 59.906875 0.51953125 59.609375 C5.17383294 56.56617774 6.12577109 52.63804655 7.76953125 47.484375 C9.02494682 51.25062171 8.14015083 52.85626434 6.76953125 56.484375 C7.31222656 56.07445312 7.85492188 55.66453125 8.4140625 55.2421875 C9.12949219 54.70335937 9.84492188 54.16453125 10.58203125 53.609375 C11.28972656 53.07570312 11.99742187 52.54203125 12.7265625 51.9921875 C14.37409422 50.77622719 16.06577336 49.62021359 17.76953125 48.484375 C17.41891028 51.28329757 17.03478253 52.2682639 14.80859375 54.08203125 C14.01195312 54.56542969 13.2153125 55.04882812 12.39453125 55.546875 C7.5473829 58.52305566 4.54185374 61.6675778 1.08203125 66.171875 C0.45941406 66.98011719 -0.16320312 67.78835937 -0.8046875 68.62109375 C-1.27519531 69.23597656 -1.74570313 69.85085937 -2.23046875 70.484375 C3.8662579 69.38089506 8.82586995 64.98763989 12.546875 60.1953125 C13.54930574 58.66998532 14.5297025 57.12988286 15.484375 55.57421875 C17.04506348 53.03632107 18.85683703 50.76489504 20.76953125 48.484375 C21.32130051 52.18911148 21.4015806 54.37133213 19.52734375 57.671875 C13.02711853 66.29890202 4.72916279 74.5970173 -5.91796875 77.484375 C-9.45494703 78.55214203 -10.89769401 79.68504532 -13.23046875 82.484375 C-9.91675875 84.693515 -8.88586665 84.70919053 -5.04296875 84.609375 C-4.14191406 84.59132813 -3.24085937 84.57328125 -2.3125 84.5546875 C-1.62542969 84.53148438 -0.93835938 84.50828125 -0.23046875 84.484375 C-0.10614762 89.60717071 -0.01579315 94.7290736 0.04418945 99.85302734 C0.06921358 101.59309196 0.10324419 103.33305273 0.14672852 105.07275391 C0.20792045 107.58522255 0.23586084 110.0962928 0.2578125 112.609375 C0.29652214 113.76143433 0.29652214 113.76143433 0.33601379 114.93676758 C0.33905266 120.89261806 -1.50405642 124.8547375 -5.23046875 129.484375 C-7.36328125 131.10546875 -7.36328125 131.10546875 -9.35546875 131.921875 C-10.01804688 132.20933594 -10.680625 132.49679688 -11.36328125 132.79296875 C-17.54488565 135.08197289 -24.20371251 135.63581674 -30.62109375 133.80078125 C-35.37867542 131.61265686 -38.2390142 128.74493147 -41.23046875 124.484375 C-42.50432002 120.6628212 -42.35400063 117.0775303 -42.328125 113.09765625 C-42.32671005 112.28064743 -42.3252951 111.46363861 -42.32383728 110.62187195 C-42.31824169 108.01350232 -42.30569004 105.40521866 -42.29296875 102.796875 C-42.28795318 101.02799603 -42.28339037 99.25911572 -42.27929688 97.49023438 C-42.26827371 93.15491481 -42.25101213 88.81965948 -42.23046875 84.484375 C-37.28046875 84.484375 -32.33046875 84.484375 -27.23046875 84.484375 C-27.23046875 83.824375 -27.23046875 83.164375 -27.23046875 82.484375 C-28.22046875 81.824375 -29.21046875 81.164375 -30.23046875 80.484375 C-30.23046875 79.494375 -30.23046875 78.504375 -30.23046875 77.484375 C-31.8096089 76.95096316 -33.39401262 76.43311737 -34.98046875 75.921875 C-35.8621875 75.63183594 -36.74390625 75.34179688 -37.65234375 75.04296875 C-40.30881191 74.46740065 -41.70077981 74.59189129 -44.23046875 75.484375 C-43.90046875 73.834375 -43.57046875 72.184375 -43.23046875 70.484375 C-43.89046875 70.484375 -44.55046875 70.484375 -45.23046875 70.484375 C-45.62234375 69.824375 -46.01421875 69.164375 -46.41796875 68.484375 C-48.01938578 65.83375372 -49.57157609 63.97411075 -51.66796875 61.734375 C-60.07965957 52.3445806 -60.93906327 41.61993544 -60.40527344 29.52246094 C-59.5686704 19.7683239 -52.8739192 11.71454904 -45.98046875 5.234375 C-33.12447407 -5.25494793 -14.86067694 -6.65459244 0 0 Z " fill="#F5AB36" transform="translate(118.23046875,20.515625)"/>
<path d="M0 0 C0.6796875 1.734375 0.6796875 1.734375 1 4 C-3.79156206 12.91297559 -12.96907575 20.65177721 -22 25 C-23.216875 25.33 -24.43375 25.66 -25.6875 26 C-29.22447828 27.06776703 -30.66722526 28.20067032 -33 31 C-29.68629 33.20914 -28.6553979 33.22481553 -24.8125 33.125 C-23.91144531 33.10695312 -23.01039062 33.08890625 -22.08203125 33.0703125 C-21.39496094 33.04710937 -20.70789063 33.02390625 -20 33 C-19.87567887 38.12279571 -19.7853244 43.2446986 -19.7253418 48.36865234 C-19.70031767 50.10871696 -19.66628706 51.84867773 -19.62280273 53.58837891 C-19.5616108 56.10084755 -19.53367041 58.6119178 -19.51171875 61.125 C-19.48591232 61.89303955 -19.4601059 62.6610791 -19.43351746 63.45239258 C-19.43047859 69.40824306 -21.27358767 73.3703625 -25 78 C-27.1328125 79.62109375 -27.1328125 79.62109375 -29.125 80.4375 C-29.78757813 80.72496094 -30.45015625 81.01242188 -31.1328125 81.30859375 C-37.3144169 83.59759789 -43.97324376 84.15144174 -50.390625 82.31640625 C-55.14820667 80.12828186 -58.00854545 77.26055647 -61 73 C-62.27385127 69.1784462 -62.12353188 65.5931553 -62.09765625 61.61328125 C-62.09553383 60.38776802 -62.09553383 60.38776802 -62.09336853 59.13749695 C-62.08777294 56.52912732 -62.07522129 53.92084366 -62.0625 51.3125 C-62.05748443 49.54362103 -62.05292162 47.77474072 -62.04882812 46.00585938 C-62.03780496 41.67053981 -62.02054338 37.33528448 -62 33 C-57.05 33 -52.1 33 -47 33 C-47 32.34 -47 31.68 -47 31 C-47.99 30.34 -48.98 29.68 -50 29 C-50 28.01 -50 27.02 -50 26 C-51.57914015 25.46658816 -53.16354387 24.94874237 -54.75 24.4375 C-55.63171875 24.14746094 -56.5134375 23.85742188 -57.421875 23.55859375 C-60.07834316 22.98302565 -61.47031106 23.10751629 -64 24 C-63.67 22.35 -63.34 20.7 -63 19 C-63.66 19 -64.32 19 -65 19 C-64.67 18.34 -64.34 17.68 -64 17 C-63.2265625 17.40992187 -62.453125 17.81984375 -61.65625 18.2421875 C-49.07838604 24.74905277 -38.82520039 26.84880344 -24.95703125 23.0390625 C-13.09303227 18.87020685 -5.45556971 11.08712553 0 0 Z " fill="#AE112E" transform="translate(138,72)"/>
<path d="M0 0 C6.496875 -0.12375 6.496875 -0.12375 13.125 -0.25 C15.15744873 -0.30462402 15.15744873 -0.30462402 17.23095703 -0.36035156 C28.36022969 -0.46317006 28.36022969 -0.46317006 33 4 C35.6816265 8.02243975 35.68957829 11.27265002 35 16 C32.94161475 19.33600367 31.2606736 20.8262176 28 23 C28.763125 23.4125 29.52625 23.825 30.3125 24.25 C33.09782721 26.06370144 34.4884059 27.05636939 36 30 C36.53947967 35.57462325 36.24167366 39.2455453 33 44 C28.18719799 48.61226859 23.71964279 48.4202977 17.23095703 48.36035156 C15.87599121 48.32393555 14.52102539 48.28751953 13.125 48.25 C8.79375 48.1675 4.4625 48.085 0 48 C0 32.16 0 16.32 0 0 Z " fill="#FBECEE" transform="translate(33,106)"/>
<path d="M0 0 C3.88862987 1.26117725 5.89375599 2.45264167 8 6 C8 6.66 8 7.32 8 8 C8.66 8 9.32 8 10 8 C8.02 4.535 8.02 4.535 6 1 C11.95734787 2.34040327 15.90925737 5.62778426 20 10 C21.5 12.9375 21.5 12.9375 22 15 C19.69 14.67 17.38 14.34 15 14 C15.60328125 14.10054687 16.2065625 14.20109375 16.828125 14.3046875 C19.52081445 14.93877244 21.60616446 15.59501219 24 17 C25.94674155 20.17303544 27.03838084 23.41578313 28 27 C27.34 24.36 26.68 21.72 26 19 C30.59306496 20.4859916 33.43569245 22.85014682 37 26 C34.19077102 23.01519421 31.42202087 20.54109907 28.0625 18.1875 C23.76917764 15.05256462 20.9833567 11.34742835 18 7 C17.00522614 5.66276301 16.00659997 4.32835774 15 3 C24.49193973 5.37298493 31.17867229 12.47126209 37 20 C38.05591918 21.97104913 39.08239669 23.96088152 40 26 C40.66 26.33 41.32 26.66 42 27 C42.96972498 31.58415445 42.93625685 34.31871573 42 39 C33.09 39 24.18 39 15 39 C14.505 33.06 14.505 33.06 14 27 C2.0181381 25.89813623 2.0181381 25.89813623 -10 26 C-10.33 26.33 -10.66 26.66 -11 27 C-13.18292774 27.23481693 -15.37203174 27.41363323 -17.5625 27.5625 C-19.35880859 27.68818359 -19.35880859 27.68818359 -21.19140625 27.81640625 C-22.11824219 27.87699219 -23.04507813 27.93757813 -24 28 C-23.0501139 19.76765376 -23.0501139 19.76765376 -21 17 C-18.375 15.75 -18.375 15.75 -16 15 C-17.32 14.67 -18.64 14.34 -20 14 C-10.95899772 3.07289294 -10.95899772 3.07289294 -4 1 C-4.33 1.78375 -4.66 2.5675 -5 3.375 C-6.11866511 5.84332497 -6.11866511 5.84332497 -6 8 C-5.38125 7.05125 -4.7625 6.1025 -4.125 5.125 C-2 2 -2 2 0 0 Z " fill="#ED9A32" transform="translate(98,18)"/>
<path d="M0 0 C60.06 0 120.12 0 182 0 C182 49.17 182 98.34 182 149 C124.58 149 67.16 149 8 149 C8 148.67 8 148.34 8 148 C9.21558594 147.93941406 10.43117188 147.87882813 11.68359375 147.81640625 C13.26824228 147.73201668 14.85287702 147.6473679 16.4375 147.5625 C17.23994141 147.52318359 18.04238281 147.48386719 18.86914062 147.44335938 C22.75239561 147.5945704 22.75239561 147.5945704 26 146 C27.85577171 145.89054884 29.71532876 145.84412367 31.57421875 145.82421875 C32.71697266 145.80037109 33.85972656 145.77652344 35.03710938 145.75195312 C37.45099789 145.7093323 39.86511242 145.67789468 42.27929688 145.65820312 C50.94681801 145.49996079 50.94681801 145.49996079 58 141 C58.33 140.34 58.66 139.68 59 139 C59.66 139.33 60.32 139.66 61 140 C59.68 141.65 58.36 143.3 57 145 C59.31 145.33 61.62 145.66 64 146 C64 146.66 64 147.32 64 148 C68.0907319 147.81066415 72.17957283 147.59804474 76.26806641 147.36523438 C77.65446174 147.28940835 79.0412004 147.21958134 80.42822266 147.15625 C92.75710286 146.66514139 92.75710286 146.66514139 104 142 C105.64946707 139.93140217 106.88794651 137.97575483 108.0625 135.609375 C108.5265625 134.81273437 108.5265625 134.81273437 109 134 C109.66 134 110.32 134 111 134 C111 133.34 111 132.68 111 132 C111.66 132 112.32 132 113 132 C113.33 131.34 113.66 130.68 114 130 C114.99 130.33 115.98 130.66 117 131 C113.92482916 141.55808656 113.92482916 141.55808656 112 146 C113.98 146 115.96 146 118 146 C118.29003906 144.98679688 118.29003906 144.98679688 118.5859375 143.953125 C118.84632812 143.06109375 119.10671875 142.1690625 119.375 141.25 C119.63023438 140.36828125 119.88546875 139.4865625 120.1484375 138.578125 C121 136 121 136 123 132 C128.28 132 133.56 132 139 132 C144 143.75 144 143.75 144 146 C144.90363281 146 145.80726563 146 146.73828125 146 C151.15885417 146 155.57942708 146 160 146 C160 146.33 160 146.66 160 147 C166.93 147 173.86 147 181 147 C181 98.82 181 50.64 181 1 C121.6 1 62.2 1 1 1 C1 49.84 1 98.68 1 149 C0.67 149 0.34 149 0 149 C0 99.83 0 50.66 0 0 Z " fill="#9C1731" transform="translate(8,8)"/>
<path d="M0 0 C1.1859375 0.00902344 2.371875 0.01804688 3.59375 0.02734375 C6.47925645 0.05061396 9.36465694 0.08647168 12.25 0.125 C12.25 3.755 12.25 7.385 12.25 11.125 C8.62 11.455 4.99 11.785 1.25 12.125 C0.92 15.755 0.59 19.385 0.25 23.125 C-3.38 23.455 -7.01 23.785 -10.75 24.125 C-10.83159574 28.28638263 -10.73248524 32.0722484 -9.75 36.125 C-17.17857143 37.41071429 -17.17857143 37.41071429 -20.75 36.125 C-18.20335415 40.93533104 -15.75972202 44.44942148 -11.75 48.125 C-22.22965703 45.43790845 -29.57806361 38.36680691 -35.1875 29.4375 C-36.85009435 25.91279998 -36.81488957 25.55631083 -35.75 22.125 C-36.72272675 20.77164105 -37.7239266 19.43837396 -38.75 18.125 C-38.75 16.125 -38.75 14.125 -38.75 12.125 C-37.48542969 12.14240234 -37.48542969 12.14240234 -36.1953125 12.16015625 C-35.09960938 12.16917969 -34.00390625 12.17820312 -32.875 12.1875 C-31.23917969 12.20490234 -31.23917969 12.20490234 -29.5703125 12.22265625 C-26.79822454 12.32244303 -26.79822454 12.32244303 -24.75 11.125 C-25.08 10.795 -25.41 10.465 -25.75 10.125 C-25.89115161 7.45441149 -25.79247107 4.80067762 -25.75 2.125 C-17.08732165 0.3731086 -8.82396723 -0.12976422 0 0 Z " fill="#F4AE26" transform="translate(98.75,45.875)"/>
<path d="M0 0 C12.87 0 25.74 0 39 0 C40.97821674 4.94554184 41.13218374 6.13160991 40 11 C39.34 11 38.68 11 38 11 C37.72414062 11.73476562 37.44828125 12.46953125 37.1640625 13.2265625 C33.35813772 22.29436985 27.02899581 29.01985434 18.625 34 C17.325625 34.495 17.325625 34.495 16 35 C15.34 34.67 14.68 34.34 14 34 C14.47050781 33.48050781 14.94101563 32.96101563 15.42578125 32.42578125 C19.31191769 28.14361813 19.31191769 28.14361813 22.4375 23.3125 C25.34089206 19.01547975 30.15854254 16.61381915 35 15 C35 14.01 35 13.02 35 12 C34.44570312 12.5053125 33.89140625 13.010625 33.3203125 13.53125 C32.59585938 14.1809375 31.87140625 14.830625 31.125 15.5 C30.40570313 16.1496875 29.68640625 16.799375 28.9453125 17.46875 C27 19 27 19 25 19 C25.33 16.36 25.66 13.72 26 11 C25.84144531 11.61488281 25.68289062 12.22976562 25.51953125 12.86328125 C23.59005146 19.54716981 23.59005146 19.54716981 20.3125 22.0625 C19.1678125 22.5265625 19.1678125 22.5265625 18 23 C18.66 23.33 19.32 23.66 20 24 C17.11771201 30.48514797 13.2829951 33.97485421 7 37 C6.34 36.67 5.68 36.34 5 36 C5.33 35.34 5.66 34.68 6 34 C5.34 34 4.68 34 4 34 C3.34 35.32 2.68 36.64 2 38 C1.34 38 0.68 38 0 38 C0 25.33333333 0 12.66666667 0 0 Z " fill="#EC972D" transform="translate(100,58)"/>
<path d="M0 0 C3.63 0 7.26 0 11 0 C13.26519541 6.03049755 15.52539349 12.06283533 17.78100586 18.09692383 C18.54884389 20.14886843 19.31803867 22.20030588 20.08862305 24.2512207 C21.19678153 27.20130863 22.30002848 30.15319331 23.40234375 33.10546875 C23.74716293 34.02023483 24.09198212 34.93500092 24.44725037 35.87748718 C24.76750687 36.73800186 25.08776337 37.59851654 25.41772461 38.48510742 C25.69974228 39.23789474 25.98175995 39.99068207 26.27232361 40.76628113 C27 43 27 43 28 48 C23.71 48 19.42 48 15 48 C12.525 41.565 12.525 41.565 10 35 C4.72 35 -0.56 35 -6 35 C-7.65 39.29 -9.3 43.58 -11 48 C-12.98 48 -14.96 48 -17 48 C-14.83776641 40.44899279 -12.30836775 33.06774639 -9.625 25.6875 C-9.22869385 24.59187744 -8.8323877 23.49625488 -8.42407227 22.36743164 C-5.70523256 14.87491225 -2.91163104 7.41996296 0 0 Z " fill="#FCF5F5" transform="translate(137,106)"/>
<path d="M0 0 C3.96 0 7.92 0 12 0 C12.01458252 0.99854004 12.02916504 1.99708008 12.04418945 3.02587891 C12.10240068 6.74986606 12.17963077 10.47326292 12.26245117 14.19677734 C12.29559363 15.8047524 12.32365854 17.41284081 12.34643555 19.02099609 C12.38017967 21.34000705 12.43250194 23.65798931 12.48828125 25.9765625 C12.49467117 26.68930328 12.5010611 27.40204407 12.50764465 28.13638306 C12.64313369 32.79264235 13.57984728 36.02486629 16 40 C18.93351515 42.3902716 22.2454658 42.41764202 25.96484375 42.3203125 C29.36709033 41.78483415 31.45591184 40.23383351 34 38 C35.45402024 34.25047926 35.22460102 30.14381346 35.31640625 26.171875 C35.33718735 25.42286926 35.35796844 24.67386353 35.37937927 23.90216064 C35.44457088 21.51819712 35.50361783 19.13412688 35.5625 16.75 C35.60571416 15.13019746 35.64932937 13.51040557 35.69335938 11.890625 C35.80022096 7.92719168 35.90157333 3.9636514 36 0 C37.98 0 39.96 0 42 0 C42.12435639 4.98037787 42.21469131 9.95983617 42.2746582 14.94140625 C42.2996766 16.63297281 42.3337029 18.32443264 42.37719727 20.015625 C42.80766876 37.19396983 42.80766876 37.19396983 38.36108398 42.71337891 C36.62693113 44.35265882 35.09129575 45.52925331 32.875 46.4375 C32.21242187 46.72496094 31.54984375 47.01242188 30.8671875 47.30859375 C24.6855831 49.59759789 18.02675624 50.15144174 11.609375 48.31640625 C6.85179333 46.12828186 3.99145455 43.26055647 1 39 C-0.25282725 35.24151826 -0.12381835 31.74509081 -0.09765625 27.83203125 C-0.0962413 27.03721848 -0.09482635 26.2424057 -0.09336853 25.42350769 C-0.08777378 22.88646675 -0.07522228 20.34951425 -0.0625 17.8125 C-0.05748432 16.09179815 -0.05292153 14.37109492 -0.04882812 12.65039062 C-0.03780607 8.4335597 -0.02054506 4.21679484 0 0 Z " fill="#FCF8F9" transform="translate(76,106)"/>
<path d="M0 0 C1.26783325 0.00374634 1.26783325 0.00374634 2.5612793 0.00756836 C4.16483276 0.02122437 4.16483276 0.02122437 5.80078125 0.03515625 C10.90546875 0.06609375 10.90546875 0.06609375 16.11328125 0.09765625 C16.11328125 9.00765625 16.11328125 17.91765625 16.11328125 27.09765625 C5.88328125 27.09765625 -4.34671875 27.09765625 -14.88671875 27.09765625 C-14.22671875 25.44765625 -13.56671875 23.79765625 -12.88671875 22.09765625 C-12.22671875 22.09765625 -11.56671875 22.09765625 -10.88671875 22.09765625 C-10.88671875 21.43765625 -10.88671875 20.77765625 -10.88671875 20.09765625 C-11.87671875 20.42765625 -12.86671875 20.75765625 -13.88671875 21.09765625 C-13.88671875 19.77765625 -13.88671875 18.45765625 -13.88671875 17.09765625 C-12.89671875 17.09765625 -11.90671875 17.09765625 -10.88671875 17.09765625 C-10.88671875 16.43765625 -10.88671875 15.77765625 -10.88671875 15.09765625 C-9.51171875 13.47265625 -9.51171875 13.47265625 -7.88671875 12.09765625 C-7.22671875 12.09765625 -6.56671875 12.09765625 -5.88671875 12.09765625 C-6.40234375 11.02515625 -6.91796875 9.95265625 -7.44921875 8.84765625 C-8.44955884 6.50562779 -8.89734842 5.29961999 -8.76171875 2.72265625 C-6.98185902 -0.58279754 -3.31816142 -0.02011007 0 0 Z " fill="#FBC802" transform="translate(172.88671875,163.90234375)"/>
<path d="M0 0 C4.62 0 9.24 0 14 0 C13.67 1.32 13.34 2.64 13 4 C12.93303612 5.35267041 12.91472015 6.70836468 12.9375 8.0625 C12.94587891 8.85043945 12.95425781 9.63837891 12.96289062 10.45019531 C12.97513672 11.29163086 12.98738281 12.13306641 13 13 C13.08446542 23.36237132 12.61609096 33.65847325 12 44 C14.64 44 17.28 44 20 44 C19.67 44.99 19.34 45.98 19 47 C12.73 47 6.46 47 0 47 C0 31.49 0 15.98 0 0 Z " fill="#FCF8F8" transform="translate(34,106)"/>
<path d="M0 0 C0.33 0 0.66 0 1 0 C1 3.63 1 7.26 1 11 C4.3 11 7.6 11 11 11 C11 11.33 11 11.66 11 12 C7.7 12 4.4 12 1 12 C1.11376617 14.12563103 1.24135631 16.2505261 1.375 18.375 C1.44460937 19.55835937 1.51421875 20.74171875 1.5859375 21.9609375 C1.70217346 25.10562319 1.70217346 25.10562319 4 27 C3.01 27 2.02 27 1 27 C1 30.63 1 34.26 1 38 C1.61875 37.34 2.2375 36.68 2.875 36 C5 34 5 34 7 34 C7.33 34.66 7.66 35.32 8 36 C13.92903211 32.80744425 17.41335014 29.71622322 21 24 C19.68 23.67 18.36 23.34 17 23 C17.9075 22.71125 18.815 22.4225 19.75 22.125 C24.40430169 19.08180274 25.35623984 15.15367155 27 10 C28.25541557 13.76624671 27.37061958 15.37188934 26 19 C26.54269531 18.59007813 27.08539063 18.18015625 27.64453125 17.7578125 C28.35996094 17.21898438 29.07539063 16.68015625 29.8125 16.125 C30.87404297 15.32449219 30.87404297 15.32449219 31.95703125 14.5078125 C33.60456297 13.29185219 35.29624211 12.13583859 37 11 C36.64937903 13.79892257 36.26525128 14.7838889 34.0390625 16.59765625 C33.24242187 17.08105469 32.44578125 17.56445312 31.625 18.0625 C26.77785165 21.03868066 23.77232249 24.1832028 20.3125 28.6875 C19.68988281 29.49574219 19.06726563 30.30398437 18.42578125 31.13671875 C17.95527344 31.75160156 17.48476562 32.36648437 17 33 C23.09672665 31.89652006 28.0563387 27.50326489 31.77734375 22.7109375 C32.77977449 21.18561032 33.76017125 19.64550786 34.71484375 18.08984375 C36.27553223 15.55194607 38.08730578 13.28052004 40 11 C38.73760179 19.36705793 32.59439718 26.89544811 26 32 C16.36451994 37.84050048 6.36834036 41.33514187 -5 40 C-7.29296875 38.984375 -7.29296875 38.984375 -9 38 C-8.34 38 -7.68 38 -7 38 C-7 37.34 -7 36.68 -7 36 C-7.680625 35.814375 -8.36125 35.62875 -9.0625 35.4375 C-13.15225868 33.43612873 -16.10471762 30.4945747 -19 27 C-19.33 26.01 -19.66 25.02 -20 24 C-18.700625 24.020625 -17.40125 24.04125 -16.0625 24.0625 C-14.70834367 24.08399454 -13.35243917 24.07148199 -12 24 C-11.67 23.67 -11.34 23.34 -11 23 C-11.144375 22.46375 -11.28875 21.9275 -11.4375 21.375 C-12.18819178 18.20541249 -12.12242292 15.24420736 -12 12 C-11 11 -11 11 -8.49609375 10.90234375 C-5.6640625 10.93489583 -2.83203125 10.96744792 0 11 C0 7.37 0 3.74 0 0 Z " fill="#F5A43C" transform="translate(99,58)"/>
<path d="M0 0 C9.49193973 2.37298493 16.17867229 9.47126209 22 17 C23.05591918 18.97104913 24.08239669 20.96088152 25 23 C25.66 23.33 26.32 23.66 27 24 C27.96972498 28.58415445 27.93625685 31.31871573 27 36 C18.09 36 9.18 36 0 36 C-0.33 32.37 -0.66 28.74 -1 25 C3.72383963 24.34843591 8.21974517 23.88049363 13 24 C12.34 21.36 11.68 18.72 11 16 C15.59306496 17.4859916 18.43569245 19.85014682 22 23 C19.19077102 20.01519421 16.42202087 17.54109907 13.0625 15.1875 C8.76917764 12.05256462 5.9833567 8.34742835 3 4 C2.00522614 2.66276301 1.00659997 1.32835774 0 0 Z " fill="#EFA12D" transform="translate(113,21)"/>
<path d="M0 0 C2.56687367 3.8503105 1.83288724 5.58569763 1 10 C3.2236068 8.0745356 3.2236068 8.0745356 4 5 C4.66 5 5.32 5 6 5 C6.83719383 7.29032311 7.6698929 9.58210957 8.5 11.875 C8.73847656 12.52597656 8.97695312 13.17695312 9.22265625 13.84765625 C11 18.7734375 11 18.7734375 11 21 C11.66 21.33 12.32 21.66 13 22 C12.67 22.99 12.34 23.98 12 25 C12.66 25 13.32 25 14 25 C14.66 26.32 15.32 27.64 16 29 C15.34 29.66 14.68 30.32 14 31 C13.67 30.01 13.34 29.02 13 28 C7.72 28 2.44 28 -3 28 C-4.65 32.29 -6.3 36.58 -8 41 C-9.98 41 -11.96 41 -14 41 C-11.80269765 33.29267259 -9.18683795 25.77592018 -6.4375 18.25 C-5.64390555 16.06793579 -4.85091688 13.88565115 -4.05859375 11.703125 C-3.53736938 10.27468262 -3.53736938 10.27468262 -3.00561523 8.81738281 C-1.96126357 5.89147405 -0.972505 2.9504859 0 0 Z " fill="#FCEDEF" transform="translate(134,113)"/>
<path d="M0 0 C4.29 0 8.58 0 13 0 C13 2.64 13 5.28 13 8 C17.29 8.66 21.58 9.32 26 10 C26 10.33 26 10.66 26 11 C24.7625 11.020625 23.525 11.04125 22.25 11.0625 C21.55390625 11.07410156 20.8578125 11.08570312 20.140625 11.09765625 C17.96707597 10.99849799 16.08693463 10.59693851 14 10 C14.53700015 13.60753948 15.27365704 16.77006801 17 20 C20.16287863 22.02709452 23.37049622 23.08751687 27 24 C27 24.33 27 24.66 27 25 C24.03 24.67 21.06 24.34 18 24 C20.54664585 28.81033104 22.99027798 32.32442148 27 36 C16.52034297 33.31290845 9.17193639 26.24180691 3.5625 17.3125 C1.89990565 13.78779998 1.93511043 13.43131083 3 10 C2.02727325 8.64664105 1.0260734 7.31337396 0 6 C0 4 0 2 0 0 Z " fill="#F6A83F" transform="translate(60,58)"/>
<path d="M0 0 C1.98 0 3.96 0 6 0 C6.12435639 4.98037787 6.21469131 9.95983617 6.2746582 14.94140625 C6.2996766 16.63297281 6.3337029 18.32443264 6.37719727 20.015625 C6.80766876 37.19396983 6.80766876 37.19396983 2.36108398 42.71337891 C0.62693113 44.35265882 -0.90870425 45.52925331 -3.125 46.4375 C-3.78757812 46.72496094 -4.45015625 47.01242188 -5.1328125 47.30859375 C-9.04627951 48.75772275 -12.01699905 49.1073441 -16.1875 49.0625 C-17.81751953 49.04896484 -17.81751953 49.04896484 -19.48046875 49.03515625 C-20.31191406 49.02355469 -21.14335938 49.01195312 -22 49 C-22 48.67 -22 48.34 -22 48 C-21.28972656 47.93941406 -20.57945313 47.87882812 -19.84765625 47.81640625 C-18.92855469 47.73261719 -18.00945312 47.64882812 -17.0625 47.5625 C-16.14597656 47.48128906 -15.22945313 47.40007812 -14.28515625 47.31640625 C-12.03840268 47.23955024 -12.03840268 47.23955024 -11 46 C-15.48133574 45.27743171 -15.48133574 45.27743171 -20 45 C-20.33 43.35 -20.66 41.7 -21 40 C-20.34 40.33 -19.68 40.66 -19 41 C-15.26292041 42.2456932 -11.87454253 42.6205322 -8 42 C-3.83421545 40.02207125 -3.83421545 40.02207125 -1.35961914 36.34863281 C-0.84155685 32.96522532 -0.76254006 29.58747435 -0.68359375 26.171875 C-0.66281265 25.42286926 -0.64203156 24.67386353 -0.62062073 23.90216064 C-0.55542912 21.51819712 -0.49638217 19.13412688 -0.4375 16.75 C-0.39428584 15.13019746 -0.35067063 13.51040557 -0.30664062 11.890625 C-0.19977904 7.92719168 -0.09842667 3.9636514 0 0 Z " fill="#F8E7EA" transform="translate(112,106)"/>
<path d="M0 0 C5.28 0 10.56 0 16 0 C19.62790698 8.46511628 19.62790698 8.46511628 18 14 C14.85372615 16.1890646 12.1187406 16.23530575 8.359375 16.1953125 C7.28945312 16.18886719 6.21953125 16.18242187 5.1171875 16.17578125 C4.00601563 16.15902344 2.89484375 16.14226562 1.75 16.125 C0.62335938 16.11597656 -0.50328125 16.10695312 -1.6640625 16.09765625 C-4.44292365 16.07410658 -7.2213539 16.0412168 -10 16 C-10 15.67 -10 15.34 -10 15 C-8.35 15 -6.7 15 -5 15 C-4.89042969 14.41992188 -4.78085938 13.83984375 -4.66796875 13.2421875 C-4.50941406 12.46101562 -4.35085937 11.67984375 -4.1875 10.875 C-4.03667969 10.10929688 -3.88585937 9.34359375 -3.73046875 8.5546875 C-3 6 -3 6 0 0 Z " fill="#AF0B2B" transform="translate(131,140)"/>
<path d="M0 0 C3.5625 0.125 3.5625 0.125 5.5625 1.125 C5.541875 2.094375 5.52125 3.06375 5.5 4.0625 C5.20631501 6.99965895 5.20631501 6.99965895 6.5625 8.125 C6.66073937 9.78929051 6.69223631 11.45781931 6.6875 13.125 C6.69136719 14.48625 6.69136719 14.48625 6.6953125 15.875 C6.5625 18.125 6.5625 18.125 5.5625 19.125 C3.58537193 19.22400199 1.60459962 19.25470773 -0.375 19.25 C-1.99728516 19.25386719 -1.99728516 19.25386719 -3.65234375 19.2578125 C-6.4375 19.125 -6.4375 19.125 -8.4375 18.125 C-9.92576894 14.40432765 -10.16147897 10.04849895 -9.4375 6.125 C-7 3.1875 -7 3.1875 -4.4375 1.125 C-3.4375 0.125 -3.4375 0.125 0 0 Z " fill="#F3AD1F" transform="translate(42.4375,167.875)"/>
<path d="M0 0 C0.33 0 0.66 0 1 0 C1 3.63 1 7.26 1 11 C4.3 11 7.6 11 11 11 C11 11.33 11 11.66 11 12 C7.7 12 4.4 12 1 12 C1.11376617 14.12563103 1.24135631 16.2505261 1.375 18.375 C1.44460937 19.55835937 1.51421875 20.74171875 1.5859375 21.9609375 C1.70217346 25.10562319 1.70217346 25.10562319 4 27 C3.01 27 2.02 27 1 27 C1 30.63 1 34.26 1 38 C1.61875 37.34 2.2375 36.68 2.875 36 C5 34 5 34 7 34 C7.33 34.66 7.66 35.32 8 36 C13.92903211 32.80744425 17.41335014 29.71622322 21 24 C19.68 23.67 18.36 23.34 17 23 C17.9075 22.71125 18.815 22.4225 19.75 22.125 C24.40430169 19.08180274 25.35623984 15.15367155 27 10 C28.25541557 13.76624671 27.37061958 15.37188934 26 19 C26.54269531 18.59007813 27.08539063 18.18015625 27.64453125 17.7578125 C28.35996094 17.21898438 29.07539063 16.68015625 29.8125 16.125 C30.87404297 15.32449219 30.87404297 15.32449219 31.95703125 14.5078125 C33.60456297 13.29185219 35.29624211 12.13583859 37 11 C36.64937903 13.79892257 36.26525128 14.7838889 34.0390625 16.59765625 C33.24242187 17.08105469 32.44578125 17.56445312 31.625 18.0625 C26.77785165 21.03868066 23.77232249 24.1832028 20.3125 28.6875 C19.68988281 29.49574219 19.06726563 30.30398437 18.42578125 31.13671875 C17.95527344 31.75160156 17.48476562 32.36648437 17 33 C23.09672665 31.89652006 28.0563387 27.50326489 31.77734375 22.7109375 C32.77977449 21.18561032 33.76017125 19.64550786 34.71484375 18.08984375 C36.27553223 15.55194607 38.08730578 13.28052004 40 11 C38.74055249 19.34750095 32.60146001 26.92474909 26 32 C18.51318583 36.35828998 12.42842898 39.15683075 3.75 39.0625 C2.67234375 39.05347656 1.5946875 39.04445312 0.484375 39.03515625 C-0.33546875 39.02355469 -1.1553125 39.01195312 -2 39 C-1.01 38.505 -1.01 38.505 0 38 C0 34.37 0 30.74 0 27 C-1.32 26.67 -2.64 26.34 -4 26 C-2.68 26 -1.36 26 0 26 C0 21.38 0 16.76 0 12 C-3.63 12 -7.26 12 -11 12 C-11 11.67 -11 11.34 -11 11 C-7.37 11 -3.74 11 0 11 C0 7.37 0 3.74 0 0 Z " fill="#F6AC3E" transform="translate(99,58)"/>
<path d="M0 0 C3.77331468 0.04318529 4.79407299 0.05651147 7.8125 2.5 C9.42837358 5.87864476 9.80373195 7.67760832 9.1875 11.375 C7.8125 14.25 7.8125 14.25 5.1875 16.375 C1.78223781 16.96576562 -1.4190883 17.05481537 -4.8125 16.375 C-7.51630802 14.33961668 -7.80512977 13.40342801 -8.6875 10 C-8.82618274 5.97820052 -8.21632374 4.51846182 -5.8125 1.375 C-4.16155878 -0.27594122 -2.26764063 0.08632307 0 0 Z " fill="#A4200B" transform="translate(98.8125,169.625)"/>
<path d="M0 0 C12.54508971 -0.84637037 23.39904064 1.24115565 33.29296875 9.40625 C38.33323917 14.11204023 42.78367708 19.35103125 45 26 C44.67 26.66 44.34 27.32 44 28 C43.36384766 26.93072266 43.36384766 26.93072266 42.71484375 25.83984375 C36.48542858 15.66741414 30.99948153 9.80259053 20 5 C21.24839573 6.41808059 22.49879221 7.83439995 23.75 9.25 C24.79414062 10.43335938 24.79414062 10.43335938 25.859375 11.640625 C29.90399805 16.09856719 34.08964309 19.62231922 38.9765625 23.12109375 C41.27563118 25.25594324 42.05544241 27.03937056 43 30 C42.32904297 29.40251953 42.32904297 29.40251953 41.64453125 28.79296875 C38.25220061 25.82015875 34.98159776 23.1717806 31 21 C31.350625 21.7425 31.70125 22.485 32.0625 23.25 C33.0720098 26.21122875 32.87980884 27.12062561 32 30 C31.3291288 28.3767313 30.66342971 26.75132422 30 25.125 C29.62875 24.22007813 29.2575 23.31515625 28.875 22.3828125 C28 20 28 20 28 18 C24.04 17.01 20.08 16.02 16 15 C16 14.67 16 14.34 16 14 C18.97 14.33 21.94 14.66 25 15 C22.05652546 10.20322667 19.23202008 6.04822273 13.6875 4.25 C13.130625 4.1675 12.57375 4.085 12 4 C12.66 5.65 13.32 7.3 14 9 C13.34 9 12.68 9 12 9 C10.64721885 7.01310269 9.31431695 5.01254782 8 3 C7.34 2.67 6.68 2.34 6 2 C6 5.63 6 9.26 6 13 C5.67 13 5.34 13 5 13 C4.97421875 12.22914062 4.9484375 11.45828125 4.921875 10.6640625 C4.86515625 9.66117188 4.8084375 8.65828125 4.75 7.625 C4.70359375 6.62726562 4.6571875 5.62953125 4.609375 4.6015625 C4.27839115 1.8473523 4.27839115 1.8473523 1.953125 0.6484375 C1.30859375 0.43445313 0.6640625 0.22046875 0 0 Z " fill="#F9B13E" transform="translate(94,17)"/>
<path d="M0 0 C0.33 0 0.66 0 1 0 C0.67 3.96 0.34 7.92 0 12 C1.65 11.67 3.3 11.34 5 11 C7.3125 11.4375 7.3125 11.4375 9 12 C6.11771201 18.48514797 2.2829951 21.97485421 -4 25 C-4.66 24.67 -5.32 24.34 -6 24 C-5.67 23.34 -5.34 22.68 -5 22 C-5.66 22 -6.32 22 -7 22 C-7.66 23.32 -8.32 24.64 -9 26 C-9.66 26 -10.32 26 -11 26 C-11.02696365 24.20841511 -11.04637917 22.41671527 -11.0625 20.625 C-11.07410156 19.62726563 -11.08570312 18.62953125 -11.09765625 17.6015625 C-11 15 -11 15 -10 13 C-7.67843403 12.59270772 -5.3431213 12.25561323 -3 12 C-2.01 8.04 -1.02 4.08 0 0 Z " fill="#F6A43E" transform="translate(111,70)"/>
<path d="M0 0 C0.99 0 1.98 0 3 0 C2.67 1.65 2.34 3.3 2 5 C10.58 5 19.16 5 28 5 C28 5.33 28 5.66 28 6 C23.38 6 18.76 6 14 6 C14 7.98 14 9.96 14 12 C13.67 12 13.34 12 13 12 C13 10.02 13 8.04 13 6 C9.37 6 5.74 6 2 6 C2.99 7.32 3.98 8.64 5 10 C4.01 10 3.02 10 2 10 C2.680625 11.093125 3.36125 12.18625 4.0625 13.3125 C5.22265625 15.17578125 5.22265625 15.17578125 6 17 C5.67 17.99 5.34 18.98 5 20 C8.88243979 28.52507757 15.09837462 35.48141903 23.7734375 39.18359375 C24.50820312 39.45300781 25.24296875 39.72242188 26 40 C25.57847656 39.52949219 25.15695313 39.05898437 24.72265625 38.57421875 C24.17480469 37.95160156 23.62695312 37.32898438 23.0625 36.6875 C22.51722656 36.07261719 21.97195312 35.45773438 21.41015625 34.82421875 C20 33 20 33 19 30 C19.99 30 20.98 30 22 30 C22.4125 30.70125 22.825 31.4025 23.25 32.125 C25.81189342 36.33382491 29.56604383 39.78302191 34 42 C34 42.66 34 43.32 34 44 C25.97626734 44.46359344 19.67970861 40.83959249 13.43359375 36.01953125 C6.98440473 30.02866023 1.48790319 21.84382907 0 13 C-0.06790675 10.75092848 -0.08499984 8.49998395 -0.0625 6.25 C-0.05347656 5.07953125 -0.04445312 3.9090625 -0.03515625 2.703125 C-0.02355469 1.81109375 -0.01195312 0.9190625 0 0 Z " fill="#F7AE2D" transform="translate(58,52)"/>
<path d="M0 0 C0.33 0 0.66 0 1 0 C1 4.29 1 8.58 1 13 C2.44375 12.979375 3.8875 12.95875 5.375 12.9375 C9.75 12.875 9.75 12.875 12 14 C12.33 12.68 12.66 11.36 13 10 C13 11.32 13 12.64 13 14 C14.65 14 16.3 14 18 14 C18 14.33 18 14.66 18 15 C16.35 15 14.7 15 13 15 C13.33 15.66 13.66 16.32 14 17 C14.13559318 20.00474497 14.04299016 22.99068847 14 26 C18.62 26 23.24 26 28 26 C28 24.02 28 22.04 28 20 C28.33 20 28.66 20 29 20 C29 21.98 29 23.96 29 26 C32.96 26 36.92 26 41 26 C41 24.35 41 22.7 41 21 C41.33 21 41.66 21 42 21 C42 24.63 42 28.26 42 32 C40 29 40 29 40 27 C36.37 27 32.74 27 29 27 C29 28.65 29 30.3 29 32 C28.67 32 28.34 32 28 32 C28 30.35 28 28.7 28 27 C23.38 27 18.76 27 14 27 C14 28.65 14 30.3 14 32 C13.67 32 13.34 32 13 32 C13 30.35 13 28.7 13 27 C9.04 27 5.08 27 1 27 C1 26.67 1 26.34 1 26 C4.63 26 8.26 26 12 26 C12 22.37 12 18.74 12 15 C8.37 15 4.74 15 1 15 C1 18.3 1 21.6 1 25 C0.67 25 0.34 25 0 25 C0 21.7 0 18.4 0 15 C-3.63 15 -7.26 15 -11 15 C-11.33 15.66 -11.66 16.32 -12 17 C-13.09658936 13.71023192 -12.79953138 12.28696233 -12 9 C-11.67 10.32 -11.34 11.64 -11 13 C-7.37 13 -3.74 13 0 13 C0 8.71 0 4.42 0 0 Z " fill="#FCB83D" transform="translate(99,31)"/>
<path d="M0 0 C6 0 6 0 8.375 1.4375 C10.77513557 5.22232917 10.7842297 8.6387226 10 13 C8.375 15.5625 8.375 15.5625 6 17 C4.02 17 2.04 17 0 17 C0 11.39 0 5.78 0 0 Z " fill="#AA1130" transform="translate(46,132)"/>
<path d="M0 0 C3.3 0 6.6 0 10 0 C10.33 2.31 10.66 4.62 11 7 C10.01 7.33 9.02 7.66 8 8 C8.66 8.94875 9.32 9.8975 10 10.875 C12 14 12 14 12 16 C10.35 16 8.7 16 7 16 C6.34 14.68 5.68 13.36 5 12 C4.67 13.32 4.34 14.64 4 16 C2.68 16 1.36 16 0 16 C0 10.72 0 5.44 0 0 Z " fill="#A21C0B" transform="translate(64,170)"/>
<path d="M0 0 C-0.72204473 8.66453674 -0.72204473 8.66453674 -4 12 C-7.30450912 13.10323769 -10.53895478 13.46061633 -14 14 C-13.67 10.04 -13.34 6.08 -13 2 C-3.375 0 -3.375 0 0 0 Z " fill="#A9290B" transform="translate(125,68)"/>
<path d="M0 0 C1.6045556 0.14148989 3.20863767 0.28835686 4.8125 0.4375 C5.70582031 0.51871094 6.59914063 0.59992188 7.51953125 0.68359375 C10 1 10 1 13 2 C13.66 5.96 14.32 9.92 15 14 C5.77287476 13.21804023 5.77287476 13.21804023 2 10 C0.37480764 6.36266471 0 4.01547913 0 0 Z " fill="#AE0C28" transform="translate(74,68)"/>
<path d="M0 0 C10.43506012 1.7617634 10.43506012 1.7617634 13 5 C14.64883942 8.38445986 15 10.13754696 15 14 C10.71 13.67 6.42 13.34 2 13 C1.34 8.71 0.68 4.42 0 0 Z " fill="#AB151B" transform="translate(110,32)"/>
<path d="M0 0 C6 0 6 0 8.4375 1.4375 C10.50745561 4.8322272 10.12653375 7.02692444 9.65234375 10.87890625 C8.85756184 13.46313726 8.25095045 14.48484411 6 16 C4.02 16 2.04 16 0 16 C0 10.72 0 5.44 0 0 Z " fill="#A61730" transform="translate(46,111)"/>
<path d="M0 0 C-0.33 4.29 -0.66 8.58 -1 13 C-7.435 13.495 -7.435 13.495 -14 14 C-13.08368734 6.05862362 -13.08368734 6.05862362 -11 3 C-8.65234375 1.953125 -8.65234375 1.953125 -5.9375 1.25 C-4.58978516 0.88648438 -4.58978516 0.88648438 -3.21484375 0.515625 C-1 0 -1 0 0 0 Z " fill="#AE0E25" transform="translate(88,32)"/>
<path d="M0 0 C0.66 1.32 1.32 2.64 2 4 C2.90363281 4 3.80726563 4 4.73828125 4 C9.15885417 4 13.57942708 4 18 4 C18 4.33 18 4.66 18 5 C24.93 5 31.86 5 39 5 C39 5.66 39 6.32 39 7 C15.24 7 -8.52 7 -33 7 C-30 4 -30 4 -26.8125 3.8125 C-25.4203125 3.9053125 -25.4203125 3.9053125 -24 4 C-24 4.33 -24 4.66 -24 5 C-17.73 5.33 -11.46 5.66 -5 6 C-4.67 5.34 -4.34 4.68 -4 4 C-3.34 4 -2.68 4 -2 4 C-1.34 2.68 -0.68 1.36 0 0 Z " fill="#A01229" transform="translate(150,150)"/>
<path d="M0 0 C2.05078125 0.03255208 4.1015625 0.06510417 6.15234375 0.09765625 C6.15234375 4.38765625 6.15234375 8.67765625 6.15234375 13.09765625 C2.52234375 13.09765625 -1.10765625 13.09765625 -4.84765625 13.09765625 C-4.54006447 11.11772084 -4.22644945 9.13872026 -3.91015625 7.16015625 C-3.73613281 6.05800781 -3.56210938 4.95585938 -3.3828125 3.8203125 C-2.65953404 0.14056734 -2.65953404 0.14056734 0 0 Z " fill="#AD2019" transform="translate(92.84765625,30.90234375)"/>
<path d="M0 0 C3.63 0 7.26 0 11 0 C11 4.29 11 8.58 11 13 C8.03 13 5.06 13 2 13 C1.34 8.71 0.68 4.42 0 0 Z " fill="#B12717" transform="translate(88,70)"/>
<path d="M0 0 C3.3 0 6.6 0 10 0 C10.16682272 4.92127034 10.24828052 8.50343896 8 13 C5.36 13 2.72 13 0 13 C0 8.71 0 4.42 0 0 Z " fill="#AF0D25" transform="translate(100,70)"/>
<path d="M0 0 C0.6796875 1.734375 0.6796875 1.734375 1 4 C-4.25842034 13.78139727 -14.74872691 22.56827767 -25.2265625 26.08203125 C-35.61897822 28.61020692 -45.99412896 27.37610684 -56 24 C-59.12487792 23.09423829 -60.87137366 22.9943701 -64 24 C-63.67 22.35 -63.34 20.7 -63 19 C-63.66 19 -64.32 19 -65 19 C-64.67 18.34 -64.34 17.68 -64 17 C-63.2265625 17.40992187 -62.453125 17.81984375 -61.65625 18.2421875 C-49.07838604 24.74905277 -38.82520039 26.84880344 -24.95703125 23.0390625 C-13.09303227 18.87020685 -5.45556971 11.08712553 0 0 Z " fill="#A7250A" transform="translate(138,72)"/>
<path d="M0 0 C2.64 0 5.28 0 8 0 C9.45184478 4.53701494 10.23509196 8.18061476 10 13 C6.7 13 3.4 13 0 13 C0 8.71 0 4.42 0 0 Z " fill="#AF0B29" transform="translate(100,31)"/>
<path d="M0 0 C0.66 0 1.32 0 2 0 C2.83919398 2.26882087 3.67151724 4.53977027 4.5 6.8125 C4.73847656 7.45509766 4.97695312 8.09769531 5.22265625 8.75976562 C6.27068746 11.64933739 7 13.90076061 7 17 C3.04 17 -0.92 17 -5 17 C-3.7915371 11.05064416 -2.25422333 5.63555833 0 0 Z " fill="#A9283F" transform="translate(138,118)"/>
<path d="M0 0 C0.4125 0.37511719 0.825 0.75023438 1.25 1.13671875 C4.38651413 3.91617435 7.38680532 6.28697268 11.0625 8.3125 C15.18049293 10.76577238 17.21416769 13.86441424 19.6796875 17.90625 C21.17653993 20.27995681 22.90054613 22.14279081 25 24 C14.53749277 21.31730584 7.02744078 14.2605887 1.625 5.1875 C0 2 0 2 0 0 Z " fill="#A9260F" transform="translate(62,70)"/>
<path d="M0 0 C0.99 0.33 1.98 0.66 3 1 C2.29875 1.66 1.5975 2.32 0.875 3 C-1.30957128 5.1540605 -3.01437868 7.41163768 -4.75 9.9375 C-7.58679066 13.83257526 -10.76640014 16.17451517 -14.8515625 18.67578125 C-17.00517541 20.00318994 -18.99805238 21.455511 -21 23 C-18.80677396 13.4960205 -11.9633789 7.49032111 -4.13671875 2.3125 C-2 1 -2 1 0 0 Z " fill="#A41A13" transform="translate(83,21)"/>
<path d="M0 0 C0.99 0.66 1.98 1.32 3 2 C5.21729717 2.2784628 5.21729717 2.2784628 7.5625 2.1875 C8.34753906 2.18105469 9.13257813 2.17460937 9.94140625 2.16796875 C12.06354672 2.12364089 12.06354672 2.12364089 14 1 C13.34 2.98 12.68 4.96 12 7 C29.82 7.33 47.64 7.66 66 8 C66 8.33 66 8.66 66 9 C40.59 9 15.18 9 -11 9 C-11 8.67 -11 8.34 -11 8 C-4.4 8 2.2 8 9 8 C9 7.01 9 6.02 9 5 C8.236875 5.20625 7.47375 5.4125 6.6875 5.625 C4 6 4 6 1 4 C0.34 3.67 -0.32 3.34 -1 3 C-0.67 2.01 -0.34 1.02 0 0 Z " fill="#F6C312" transform="translate(123,183)"/>
<path d="M0 0 C4.29 0 8.58 0 13 0 C13 2.64 13 5.28 13 8 C8.28741428 9.27798935 4.95734952 10 0 10 C0 6.7 0 3.4 0 0 Z " fill="#AE092D" transform="translate(113,58)"/>
<path d="M0 0 C4.29 0 8.58 0 13 0 C13 3.3 13 6.6 13 10 C3.375 9.125 3.375 9.125 0 8 C0 5.36 0 2.72 0 0 Z " fill="#AB141D" transform="translate(73,58)"/>
<path d="M0 0 C-0.33 0.99 -0.66 1.98 -1 3 C-3.97 2.505 -3.97 2.505 -7 2 C-9.31332486 5.46998729 -9.33957563 6.92509248 -9 11 C-7.27773504 14.24849977 -7.27773504 14.24849977 -4 15 C-4 12.36 -4 9.72 -4 7 C-2.68 7 -1.36 7 0 7 C0 9.97 0 12.94 0 16 C-8.92674617 16.6132879 -8.92674617 16.6132879 -12.625 14.5 C-14.58535075 10.93572591 -14.76550426 7.9741072 -14 4 C-10.9733152 -1.50306327 -5.53719757 -0.38041815 0 0 Z " fill="#A7260A" transform="translate(47,170)"/>
<path d="M0 0 C0.33 0.66 0.66 1.32 1 2 C-2.66274453 10.56763721 -9.25575715 17.621554 -17.4375 22.0625 C-18.7059375 22.5265625 -18.7059375 22.5265625 -20 23 C-20.66 22.67 -21.32 22.34 -22 22 C-21.29423828 21.22076172 -21.29423828 21.22076172 -20.57421875 20.42578125 C-16.68808231 16.14361813 -16.68808231 16.14361813 -13.5625 11.3125 C-10.65910794 7.01547975 -5.84145746 4.61381915 -1 3 C-0.67 2.01 -0.34 1.02 0 0 Z " fill="#A92114" transform="translate(136,70)"/>
<path d="M0 0 C9.89670291 2.47417573 18.02809629 10.57273764 23.2890625 19.0859375 C24 21 24 21 23 24 C22.54625 23.319375 22.0925 22.63875 21.625 21.9375 C19.19613387 19.21948314 17.13767525 17.66570243 14.125 15.6875 C9.24901276 12.39854248 6.2158041 8.85876943 3 4 C2.00711623 2.66135905 1.00891954 1.32659683 0 0 Z " fill="#A61612" transform="translate(113,21)"/>
<path d="M0 0 C0 3.3 0 6.6 0 10 C-4.29 10 -8.58 10 -13 10 C-13 7.36 -13 4.72 -13 2 C-11.02099824 1.66568899 -9.04179393 1.33257681 -7.0625 1 C-5.40927734 0.7215625 -5.40927734 0.7215625 -3.72265625 0.4375 C-1 0 -1 0 0 0 Z " fill="#AA131C" transform="translate(86,46)"/>
<path d="M0 0 C4.82360189 -0.19294408 8.49646738 0.24252386 13 2 C13 4.31 13 6.62 13 9 C8.71 9 4.42 9 0 9 C0 6.03 0 3.06 0 0 Z " fill="#A8131B" transform="translate(113,47)"/>
<path d="M0 0 C3.63 0 7.26 0 11 0 C11 3.3 11 6.6 11 10 C7.37 10 3.74 10 0 10 C0 6.7 0 3.4 0 0 Z " fill="#AA1818" transform="translate(100,46)"/>
<path d="M0 0 C3.3 0 6.6 0 10 0 C10 3.3 10 6.6 10 10 C6.7 10 3.4 10 0 10 C0 6.7 0 3.4 0 0 Z " fill="#A51313" transform="translate(101,58)"/>
<path d="M0 0 C3.3 0 6.6 0 10 0 C10 3.3 10 6.6 10 10 C6.7 10 3.4 10 0 10 C0 6.7 0 3.4 0 0 Z " fill="#A80E20" transform="translate(88,58)"/>
<path d="M0 0 C3.3 0 6.6 0 10 0 C10 3.3 10 6.6 10 10 C6.7 10 3.4 10 0 10 C0 6.7 0 3.4 0 0 Z " fill="#A70E1E" transform="translate(88,46)"/>
<path d="M0 0 C1.32 1.65 2.64 3.3 4 5 C-4.10214608 10.7872472 -10.27184045 11.28334445 -20 11 C-20 10.67 -20 10.34 -20 10 C-19.28972656 9.93941406 -18.57945313 9.87882813 -17.84765625 9.81640625 C-16.92855469 9.73261719 -16.00945312 9.64882812 -15.0625 9.5625 C-14.14597656 9.48128906 -13.22945313 9.40007812 -12.28515625 9.31640625 C-10.03840268 9.23955024 -10.03840268 9.23955024 -9 8 C-13.48133574 7.27743171 -13.48133574 7.27743171 -18 7 C-18.33 5.35 -18.66 3.7 -19 2 C-18.34 2.33 -17.68 2.66 -17 3 C-12.66830598 4.44389801 -8.34650767 5.14100796 -4.15234375 3.1015625 C-2.31447388 1.91077601 -2.31447388 1.91077601 0 0 Z " fill="#F9DEE2" transform="translate(110,144)"/>
<path d="M0 0 C0.66 0.33 1.32 0.66 2 1 C1.773125 2.051875 1.54625 3.10375 1.3125 4.1875 C0.78854129 7.89179267 0.78854129 7.89179267 1.8125 10.9375 C4.92928618 13.87618411 7.47547653 13.47606681 11.625 13.37109375 C14.26037192 13.12946399 14.26037192 13.12946399 17 11 C16.25 12.9375 16.25 12.9375 15 15 C12.875 15.75 12.875 15.75 11 16 C11 16.66 11 17.32 11 18 C13.97 18.33 16.94 18.66 20 19 C20 19.33 20 19.66 20 20 C6.8 20 -6.4 20 -20 20 C-20 19.67 -20 19.34 -20 19 C-11.09 18.67 -2.18 18.34 7 18 C7.33 17.34 7.66 16.68 8 16 C6.6078125 15.62875 6.6078125 15.62875 5.1875 15.25 C1.69923829 13.88205423 0.58829909 13.35307586 -1 10 C-1.37216326 6.52647627 -1.59634933 3.19269866 0 0 Z " fill="#F7BE1A" transform="translate(90,172)"/>
<path d="M0 0 C2.5625 0.25 2.5625 0.25 5 1 C6.12256131 3.24512262 6.13413762 4.51456649 6.125 7 C6.12757812 7.70125 6.13015625 8.4025 6.1328125 9.125 C6 11 6 11 5 13 C3.00045254 13.04254356 0.99958364 13.04080783 -1 13 C-2.66561399 11.33438601 -2.17115945 9.34037295 -2.1875 7.0625 C-2.20167969 6.16660156 -2.21585937 5.27070313 -2.23046875 4.34765625 C-2 2 -2 2 0 0 Z " fill="#FBB02F" transform="translate(97,171)"/>
<path d="M0 0 C1.32 0 2.64 0 4 0 C4.33 4.62 4.66 9.24 5 14 C7.31 13.34 9.62 12.68 12 12 C12.33 8.04 12.66 4.08 13 0 C13.33 0 13.66 0 14 0 C14.05384521 2.29141286 14.09272087 4.58318188 14.125 6.875 C14.14820313 8.15117187 14.17140625 9.42734375 14.1953125 10.7421875 C14 14 14 14 12 16 C9.94140625 16.30078125 9.94140625 16.30078125 7.5625 16.3125 C6.38880859 16.33763672 6.38880859 16.33763672 5.19140625 16.36328125 C3 16 3 16 1.2265625 14.8984375 C-0.61449209 12.04890715 -0.28693778 9.66023853 -0.1875 6.3125 C-0.16042969 5.13300781 -0.13335937 3.95351562 -0.10546875 2.73828125 C-0.07066406 1.83464844 -0.03585938 0.93101562 0 0 Z " fill="#A52603" transform="translate(123,170)"/>
<path d="M0 0 C2.97 0 5.94 0 9 0 C9 0.33 9 0.66 9 1 C7.02 1.33 5.04 1.66 3 2 C3 3.98 3 5.96 3 8 C4.65 8 6.3 8 8 8 C8 6.35 8 4.7 8 3 C9.32 3 10.64 3 12 3 C11.6875 5.375 11.6875 5.375 11 8 C8 10 8 10 4 10 C4 11.98 4 13.96 4 16 C2.68 16 1.36 16 0 16 C0 10.72 0 5.44 0 0 Z " fill="#A51816" transform="translate(154,170)"/>
<path d="M0 0 C9 0 9 0 13 2 C13.75 5.125 13.75 5.125 14 8 C13.34 7.01 12.68 6.02 12 5 C11.34 5 10.68 5 10 5 C9.67 6.65 9.34 8.3 9 10 C7.35 10 5.7 10 4 10 C4 8.02 4 6.04 4 4 C3.34 3.67 2.68 3.34 2 3 C1.67 2.67 1.34 2.34 1 2 C1 7.28 1 12.56 1 18 C0.67 18 0.34 18 0 18 C0 12.06 0 6.12 0 0 Z " fill="#EBA117" transform="translate(153,168)"/>
<path d="M0 0 C0 3.92423908 -1.58012639 6.07510929 -4 9 C-10.10884354 15 -10.10884354 15 -13 15 C-12.9085395 11.37675698 -12.52155137 8.3110171 -11 5 C-7.55805013 2.63073042 -3.96861615 1.26093155 0 0 Z " fill="#AB2C0D" transform="translate(138,62)"/>
<path d="M0 0 C5.28 0 10.56 0 16 0 C16.99 2.97 17.98 5.94 19 9 C17.68 9.33 16.36 9.66 15 10 C15.33 7.69 15.66 5.38 16 3 C11.71 3 7.42 3 3 3 C2.34 4.32 1.68 5.64 1 7 C0.01 7.495 0.01 7.495 -1 8 C-1.65555119 10.52733235 -1.65555119 10.52733235 -2 13 C-3.1171875 11.296875 -3.1171875 11.296875 -4 9 C-3.06738596 5.76265013 -1.51531878 3.03063756 0 0 Z " fill="#A5283C" transform="translate(131,140)"/>
<path d="M0 0 C0.495 0.268125 0.99 0.53625 1.5 0.8125 C3.85534001 2.04271729 3.85534001 2.04271729 5.9765625 2.44921875 C8.33241682 3.05317413 10.01034739 3.5844542 12 5 C13.30454404 8.28257221 13.73664813 11.4908363 14 15 C9.83703539 13.64630871 7.61246848 11.91356111 4.75 8.625 C4.06421875 7.85414062 3.3784375 7.08328125 2.671875 6.2890625 C1.06698727 4.09171621 0.4123487 2.65601074 0 0 Z " fill="#AD1F11" transform="translate(60,62)"/>
<path d="M0 0 C1.32 0.33 2.64 0.66 4 1 C3.34 3.64 2.68 6.28 2 9 C1.01 8.01 0.02 7.02 -1 6 C-1.33 6.99 -1.66 7.98 -2 9 C-3.75672531 10.61770388 -5.61472291 12.04034929 -7.50390625 13.5 C-9.35309213 15.00092071 -9.35309213 15.00092071 -9 18 C-11.31 18 -13.62 18 -16 18 C-16 17.01 -16 16.02 -16 15 C-15.46890625 14.79246094 -14.9378125 14.58492187 -14.390625 14.37109375 C-8.71653672 11.89644576 -6.58975213 9.61112962 -4 4 C-3.34 4 -2.68 4 -2 4 C-2 3.34 -2 2.68 -2 2 C-1.34 2 -0.68 2 0 2 C0 1.34 0 0.68 0 0 Z " fill="#A71A32" transform="translate(121,138)"/>
<path d="M0 0 C5.86337819 1.31926009 10.06051744 4.57251847 14 9 C15.234375 11.73046875 15.234375 11.73046875 16 14 C6.12987013 12.51948052 6.12987013 12.51948052 3.4140625 8.8671875 C2.44385053 6.59849634 1.67491955 4.37121734 1 2 C0.67 1.34 0.34 0.68 0 0 Z " fill="#A62A0D" transform="translate(104,19)"/>
<path d="M0 0 C-2.88228799 6.48514797 -6.7170049 9.97485421 -13 13 C-13.66 12.67 -14.32 12.34 -15 12 C-11.46835477 2.79734752 -11.46835477 2.79734752 -7.95703125 0.890625 C-5.31172414 0.25459487 -2.72019995 0 0 0 Z " fill="#A62B07" transform="translate(120,82)"/>
<path d="M0 0 C5.53142276 1.78957795 9.55083815 4.92286801 12.875 9.6875 C14 12 14 12 14 14 C10.39287348 13.46306132 7.23150254 12.72211734 4 11 C1.95390206 7.85373885 0 3.85602211 0 0 Z " fill="#A6270B" transform="translate(124,37)"/>
<path d="M0 0 C1.3976212 2.79524239 0.8966321 4.9997029 0.13671875 7.953125 C-2.11583474 12.00926944 -6.71585531 13.67567825 -11 15 C-11.66 14.67 -12.32 14.34 -13 14 C-9.36452739 7.88761199 -6.06990899 3.76334357 0 0 Z " fill="#A82B09" transform="translate(73,37)"/>
<path d="M0 0 C3.58248835 0.15303834 6.69521747 0.56708666 10 2 C12.33602108 5.10100381 13.72023473 8.34930119 15 12 C14.01 12.495 14.01 12.495 13 13 C7.63653436 9.86041036 3.80008592 5.91312884 0 1 C0 0.67 0 0.34 0 0 Z " fill="#A32609" transform="translate(79,82)"/>
<path d="M0 0 C0 4.19797868 -0.35540588 7.61491953 -3 11 C-6.90732251 12.61608985 -10.8283967 13.37911021 -15 14 C-11.27794502 7.74694763 -6.65564729 3.09429216 0 0 Z " fill="#B01425" transform="translate(93,19)"/>
<path d="M0 0 C4.83271375 4.10780669 4.83271375 4.10780669 5.5625 8 C4.84913525 11.80461201 3.96430947 13.49173814 1 16 C-2.75 15.8125 -2.75 15.8125 -6 15 C-6 14.67 -6 14.34 -6 14 C-4.35 14 -2.7 14 -1 14 C-0.97291433 12.39592672 -0.95356517 10.7917215 -0.9375 9.1875 C-0.92589844 8.29417969 -0.91429688 7.40085938 -0.90234375 6.48046875 C-0.88990033 3.86586209 -0.88990033 3.86586209 -2 1 C-1.34 0.67 -0.68 0.34 0 0 Z " fill="#AE2911" transform="translate(103,170)"/>
<path d="M0 0 C1.6045556 0.14148989 3.20863767 0.28835686 4.8125 0.4375 C5.70582031 0.51871094 6.59914063 0.59992188 7.51953125 0.68359375 C10 1 10 1 13 2 C13.66 5.96 14.32 9.92 15 14 C12.36 13.67 9.72 13.34 7 13 C10.75 11.875 10.75 11.875 13 13 C13 12.01 13 11.02 13 10 C12.34 10 11.68 10 11 10 C11 7.69 11 5.38 11 3 C9.88625 3.020625 8.7725 3.04125 7.625 3.0625 C4 3 4 3 2 2 C2.47780303 3.29217171 2.95729106 4.58372046 3.4375 5.875 C3.70433594 6.59429687 3.97117187 7.31359375 4.24609375 8.0546875 C4.97916854 10.03648845 4.97916854 10.03648845 6 12 C4.125 11.375 4.125 11.375 2 10 C0.42687589 6.38181456 0 3.97906647 0 0 Z " fill="#AA280D" transform="translate(74,68)"/>
<path d="M0 0 C0.33 0 0.66 0 1 0 C1 3.63 1 7.26 1 11 C4.3 11 7.6 11 11 11 C11 11.33 11 11.66 11 12 C7.7 12 4.4 12 1 12 C1.11376617 14.12563103 1.24135631 16.2505261 1.375 18.375 C1.44460937 19.55835937 1.51421875 20.74171875 1.5859375 21.9609375 C1.70217346 25.10562319 1.70217346 25.10562319 4 27 C3.01 27 2.02 27 1 27 C1 30.3 1 33.6 1 37 C0.67 37 0.34 37 0 37 C0 33.7 0 30.4 0 27 C-1.32 26.67 -2.64 26.34 -4 26 C-2.68 26 -1.36 26 0 26 C0 21.38 0 16.76 0 12 C-3.63 12 -7.26 12 -11 12 C-11 11.67 -11 11.34 -11 11 C-7.37 11 -3.74 11 0 11 C0 7.37 0 3.74 0 0 Z " fill="#FEC14D" transform="translate(99,58)"/>
<path d="M0 0 C1.23556641 0.01740234 1.23556641 0.01740234 2.49609375 0.03515625 C3.32238281 0.04417969 4.14867188 0.05320312 5 0.0625 C5.63808594 0.07410156 6.27617188 0.08570312 6.93359375 0.09765625 C6.60359375 1.74765625 6.27359375 3.39765625 5.93359375 5.09765625 C4.94359375 5.42765625 3.95359375 5.75765625 2.93359375 6.09765625 C2.93359375 6.75765625 2.93359375 7.41765625 2.93359375 8.09765625 C0.95359375 8.42765625 -1.02640625 8.75765625 -3.06640625 9.09765625 C-3.1640625 2.9453125 -3.1640625 2.9453125 -3.06640625 1.09765625 C-2.06640625 0.09765625 -2.06640625 0.09765625 0 0 Z " fill="#AE0B2B" transform="translate(116.06640625,70.90234375)"/>
<path d="M0 0 C1.65 0 3.3 0 5 0 C6 1 6 1 6.1875 3.9375 C6 7 6 7 4 9 C3.60235737 10.98821313 3.26224651 12.98944339 3 15 C2.01 14.67 1.02 14.34 0 14 C0 9.38 0 4.76 0 0 Z " fill="#C44426" transform="translate(65,171)"/>
<path d="M0 0 C0.99 0 1.98 0 3 0 C2.67 1.65 2.34 3.3 2 5 C10.58 5 19.16 5 28 5 C28 5.33 28 5.66 28 6 C23.38 6 18.76 6 14 6 C14 7.98 14 9.96 14 12 C13.67 12 13.34 12 13 12 C13 10.02 13 8.04 13 6 C9.37 6 5.74 6 2 6 C2.99 7.32 3.98 8.64 5 10 C4.01 10.33 3.02 10.66 2 11 C1.34 11.66 0.68 12.32 0 13 C0 8.71 0 4.42 0 0 Z " fill="#FEBB3A" transform="translate(58,52)"/>
<path d="M0 0 C2.63150043 3.94725065 1.8170559 5.39477582 1 10 C0.80129824 11.64451854 0.61387833 13.29043768 0.4375 14.9375 C0.35371094 15.70964844 0.26992187 16.48179687 0.18359375 17.27734375 C0.12300781 17.84582031 0.06242188 18.41429687 0 19 C-0.33 18.01 -0.66 17.02 -1 16 C-2.65 16.99 -4.3 17.98 -6 19 C-4.12275039 12.62267685 -2.14328358 6.29304541 0 0 Z " fill="#FAE5E9" transform="translate(134,113)"/>
<path d="M0 0 C0 0.33 0 0.66 0 1 C-13.86 1 -27.72 1 -42 1 C-42 0.67 -42 0.34 -42 0 C-41.27522461 -0.02505615 -40.55044922 -0.0501123 -39.80371094 -0.07592773 C-36.45236255 -0.19348617 -33.10118854 -0.31547303 -29.75 -0.4375 C-28.61046875 -0.47681641 -27.4709375 -0.51613281 -26.296875 -0.55664062 C-19.66787777 -0.80146155 -13.12210463 -1.22128988 -6.53222656 -1.99633789 C-3.76494793 -2.00033993 -2.33349261 -1.43291245 0 0 Z " fill="#9A0E21" transform="translate(106,156)"/>
<path d="M0 0 C9.31704042 3.28836721 15.93302377 9.71349336 20.5 18.375 C20.995 19.57125 21.49 20.7675 22 22 C21.67 22.66 21.34 23.32 21 24 C20.57589844 23.28714844 20.15179688 22.57429688 19.71484375 21.83984375 C14.33570655 13.05589003 9.23259465 6.71050748 0 2 C0 1.34 0 0.68 0 0 Z " fill="#F5A540" transform="translate(117,21)"/>
<path d="M0 0 C3.3 0 6.6 0 10 0 C10 1.98 10 3.96 10 6 C9.67 4.68 9.34 3.36 9 2 C6.69 2 4.38 2 2 2 C2 5.3 2 8.6 2 12 C4.44480079 11.81171228 4.44480079 11.81171228 7 11 C8.36020151 9.03241727 8.36020151 9.03241727 9 7 C9.042721 8.66611905 9.04063832 10.33382885 9 12 C8 13 8 13 6.15234375 13.09765625 C4.1015625 13.06510417 2.05078125 13.03255208 0 13 C0 8.71 0 4.42 0 0 Z " fill="#AC2D12" transform="translate(100,70)"/>
<path d="M0 0 C4.29 0 8.58 0 13 0 C13 2.64 13 5.28 13 8 C8.28741428 9.27798935 4.95734952 10 0 10 C0 6.7 0 3.4 0 0 Z M2 1 C2 2.98 2 4.96 2 7 C5.3 7 8.6 7 12 7 C12 5.02 12 3.04 12 1 C8.7 1 5.4 1 2 1 Z " fill="#A6220A" transform="translate(113,58)"/>
<path d="M0 0 C2.64 0 5.28 0 8 0 C8.33 1.65 8.66 3.3 9 5 C8.34 5 7.68 5 7 5 C7 4.01 7 3.02 7 2 C5.35 2 3.7 2 2 2 C2 5.3 2 8.6 2 12 C4.31 12 6.62 12 9 12 C9 10.35 9 8.7 9 7 C9.33 7 9.66 7 10 7 C10 8.98 10 10.96 10 13 C6.7 13 3.4 13 0 13 C0 8.71 0 4.42 0 0 Z " fill="#A92B0C" transform="translate(100,31)"/>
<path d="M0 0 C2.64 0 5.28 0 8 0 C7.24163557 1.65161581 6.46787924 3.29617138 5.6875 4.9375 C5.04361328 6.31228516 5.04361328 6.31228516 4.38671875 7.71484375 C3 10 3 10 0 11 C0 7.37 0 3.74 0 0 Z " fill="#AE2D12" transform="translate(100,85)"/>
<path d="M0 0 C3.63 0 7.26 0 11 0 C11 2.31 11 4.62 11 7 C6.4923533 6.46968862 3.58045212 4.74778884 0 2 C0 1.34 0 0.68 0 0 Z " fill="#AA1D19" transform="translate(60,58)"/>
<path d="M0 0 C2.31 0 4.62 0 7 0 C7 3.63 7 7.26 7 11 C6.34 11 5.68 11 5 11 C3.7109375 9.35546875 3.7109375 9.35546875 2.375 7.1875 C1.92898437 6.47980469 1.48296875 5.77210937 1.0234375 5.04296875 C0 3 0 3 0 0 Z " fill="#AE3A07" transform="translate(92,85)"/>
<path d="M0 0 C1.25541557 3.76624671 0.37061958 5.37188934 -1 9 C-0.45730469 8.59007813 0.08539063 8.18015625 0.64453125 7.7578125 C1.71767578 6.94957031 1.71767578 6.94957031 2.8125 6.125 C3.52019531 5.59132813 4.22789062 5.05765625 4.95703125 4.5078125 C6.60456297 3.29185219 8.29624211 2.13583859 10 1 C9.64937903 3.79892257 9.26525128 4.7838889 7.0390625 6.59765625 C6.24242187 7.08105469 5.44578125 7.56445312 4.625 8.0625 C1.30294406 10.08235295 1.30294406 10.08235295 -1.55859375 12.671875 C-3 14 -3 14 -6.6875 14.1875 C-7.780625 14.125625 -8.87375 14.06375 -10 14 C-8 12 -8 12 -6.015625 11.1953125 C-3.24857794 9.55438924 -2.82263995 7.86306843 -1.75 4.875 C-1.41484375 3.96492188 -1.0796875 3.05484375 -0.734375 2.1171875 C-0.49203125 1.41851562 -0.2496875 0.71984375 0 0 Z " fill="#FAAE44" transform="translate(126,68)"/>
<path d="M0 0 C3.63 0 7.26 0 11 0 C10 3 10 3 8.22265625 4.16796875 C7.50980469 4.50441406 6.79695312 4.84085938 6.0625 5.1875 C4.99708984 5.70376953 4.99708984 5.70376953 3.91015625 6.23046875 C2 7 2 7 0 7 C0 4.69 0 2.38 0 0 Z " fill="#A8131C" transform="translate(128,58)"/>
<path d="M0 0 C0.33 0 0.66 0 1 0 C1 3.3 1 6.6 1 10 C4.96 10 8.92 10 13 10 C13 10.33 13 10.66 13 11 C9.37 11.33 5.74 11.66 2 12 C1.67 15.63 1.34 19.26 1 23 C-1.64 23 -4.28 23 -7 23 C-7 22.67 -7 22.34 -7 22 C-4.69 22 -2.38 22 0 22 C0 18.37 0 14.74 0 11 C-3.3 11 -6.6 11 -10 11 C-10 10.67 -10 10.34 -10 10 C-6.7 10 -3.4 10 0 10 C0 6.7 0 3.4 0 0 Z " fill="#D8860E" transform="translate(98,46)"/>
<path d="M0 0 C4.18837725 2.09418863 5.02950186 2.9604788 7 7 C7 7.99 7 8.98 7 10 C4.69 10 2.38 10 0 10 C0 6.7 0 3.4 0 0 Z " fill="#AD2212" transform="translate(100,19)"/>
<path d="M0 0 C0.33 0 0.66 0 1 0 C1 4.95 1 9.9 1 15 C2.65 15 4.3 15 6 15 C6 13.02 6 11.04 6 9 C9 12.75 9 12.75 9 15 C10.98 14.67 12.96 14.34 15 14 C15 14.66 15 15.32 15 16 C12.36 16 9.72 16 7 16 C6.67 16.66 6.34 17.32 6 18 C4.02 17.67 2.04 17.34 0 17 C0 11.39 0 5.78 0 0 Z " fill="#FBBF1E" transform="translate(62,171)"/>
<path d="M0 0 C0 2.31 0 4.62 0 7 C-3.63 7 -7.26 7 -11 7 C-4.36842105 0 -4.36842105 0 0 0 Z " fill="#A72013" transform="translate(71,49)"/>
<path d="M0 0 C2.38564077 0.57584432 4.66682784 1.22227595 7 2 C6.67 4.31 6.34 6.62 6 9 C3.03 8.505 3.03 8.505 0 8 C0 5.36 0 2.72 0 0 Z " fill="#AE0C2A" transform="translate(113,35)"/>
<path d="M0 0 C0.33 2.97 0.66 5.94 1 9 C-3.62 9 -8.24 9 -13 9 C-13 8.67 -13 8.34 -13 8 C-9.37 8 -5.74 8 -2 8 C-2 5.69 -2 3.38 -2 1 C-6.95 3.475 -6.95 3.475 -12 6 C-9.47044504 0.94089009 -5.73679191 -1.91226397 0 0 Z " fill="#F2A436" transform="translate(73,48)"/>
<path d="M0 0 C1.27613973 0.40011982 2.54580367 0.82092088 3.8125 1.25 C4.52019531 1.48203125 5.22789062 1.7140625 5.95703125 1.953125 C8 3 8 3 11 7 C7.37 7 3.74 7 0 7 C0 4.69 0 2.38 0 0 Z " fill="#A42606" transform="translate(128,49)"/>
<path d="M0 0 C2.475 0.495 2.475 0.495 5 1 C5.125 7.75 5.125 7.75 4 10 C2.68 10 1.36 10 0 10 C0 6.7 0 3.4 0 0 Z " fill="#F8C905" transform="translate(97,173)"/>
<path d="M0 0 C0.70125 0.144375 1.4025 0.28875 2.125 0.4375 C5.07556141 1.01478375 8.03270151 1.51695141 11 2 C11 3.32 11 4.64 11 6 C12.32 5.67 13.64 5.34 15 5 C16.125 9.75 16.125 9.75 15 12 C14.50371094 11.54109375 14.00742188 11.0821875 13.49609375 10.609375 C9.21525069 6.74280707 5.11646179 3.66482385 0 1 C0 0.67 0 0.34 0 0 Z " fill="#AC1F1A" transform="translate(117,20)"/>
<path d="M0 0 C-0.33 0.99 -0.66 1.98 -1 3 C-3.97 2.505 -3.97 2.505 -7 2 C-8.9451 4.91765 -9.45276317 6.62537285 -10 10 C-10.66 8.68 -11.32 7.36 -12 6 C-12.33 7.98 -12.66 9.96 -13 12 C-13.33 12 -13.66 12 -14 12 C-14.47567568 4.86486486 -14.47567568 4.86486486 -12.625 1.5 C-8.56988944 -0.81720603 -4.56419136 -0.3135704 0 0 Z " fill="#A32506" transform="translate(47,170)"/>
<path d="M0 0 C0 0.99 0 1.98 0 3 C-1.65 3 -3.3 3 -5 3 C-5 3.99 -5 4.98 -5 6 C-6.65 6 -8.3 6 -10 6 C-10.2165625 7.175625 -10.2165625 7.175625 -10.4375 8.375 C-11 11 -11 11 -12 13 C-11.34 13.33 -10.68 13.66 -10 14 C-10.99 14 -11.98 14 -13 14 C-12.08239278 6.04740406 -12.08239278 6.04740406 -10 3 C-7.6171875 1.953125 -7.6171875 1.953125 -4.875 1.25 C-3.96492188 1.00765625 -3.05484375 0.7653125 -2.1171875 0.515625 C-1.06917969 0.26039062 -1.06917969 0.26039062 0 0 Z " fill="#A51F10" transform="translate(87,32)"/>
<path d="M0 0 C9.75 1.75 9.75 1.75 12 4 C9.03 3.67 6.06 3.34 3 3 C3 5.64 3 8.28 3 11 C5.31 11.33 7.62 11.66 10 12 C10 12.33 10 12.66 10 13 C7.36 13 4.72 13 2 13 C1.34 8.71 0.68 4.42 0 0 Z " fill="#AA2C09" transform="translate(110,32)"/>
<path d="M0 0 C2 1 2 1 3.1875 3.1875 C5.84811653 7.31604289 9.57768823 10.78884411 14 13 C14 13.66 14 14.32 14 15 C12.02 15 10.04 15 8 15 C8 14.01 8 13.02 8 12 C6.52428613 10.78663526 5.04493659 9.57695438 3.53515625 8.40625 C1.24700482 6.31023343 0.18325797 3.82667183 -1 1 C-0.67 0.67 -0.34 0.34 0 0 Z " fill="#F5B030" transform="translate(78,81)"/>
<path d="M0 0 C-0.65226562 0.37511719 -1.30453125 0.75023438 -1.9765625 1.13671875 C-9.50362694 5.54415914 -15.42744612 9.43769936 -20 17 C-20.33 16.01 -20.66 15.02 -21 14 C-7.45884146 -2.48628049 -7.45884146 -2.48628049 0 0 Z " fill="#FAAF48" transform="translate(85,21)"/>
<path d="M0 0 C0.77923828 0.00451172 1.55847656 0.00902344 2.36132812 0.01367188 C4.26175268 0.02533092 6.16213706 0.04326123 8.0625 0.0625 C8.0625 0.3925 8.0625 0.7225 8.0625 1.0625 C7.05832031 1.07667969 6.05414063 1.09085938 5.01953125 1.10546875 C-4.62881681 1.39098593 -12.09161723 2.95764686 -20.9375 7.0625 C-20.6075 5.7425 -20.2775 4.4225 -19.9375 3.0625 C-18.6175 3.0625 -17.2975 3.0625 -15.9375 3.0625 C-15.9375 2.4025 -15.9375 1.7425 -15.9375 1.0625 C-10.57260405 0.15766363 -5.43432543 -0.06053662 0 0 Z " fill="#AC2C0C" transform="translate(97.9375,15.9375)"/>
<path d="M0 0 C0.66 0.66 1.32 1.32 2 2 C1.01 2.495 1.01 2.495 0 3 C-0.65555119 5.52733235 -0.65555119 5.52733235 -1 8 C-2.65 8 -4.3 8 -6 8 C-6 6.02 -6 4.04 -6 2 C-6.66 1.67 -7.32 1.34 -8 1 C-1.9453125 0.0234375 -1.9453125 0.0234375 0 0 Z " fill="#B63315" transform="translate(163,170)"/>
<path d="M0 0 C0.99 0.33 1.98 0.66 3 1 C3.80917656 5.58533383 3.93391785 8.33041073 3 13 C-0.96 13 -4.92 13 -9 13 C-9 12.67 -9 12.34 -9 12 C-5.7 11.67 -2.4 11.34 1 11 C0.67 9.68 0.34 8.36 0 7 C-0.03888349 4.66699067 -0.0448635 2.33290199 0 0 Z " fill="#EFA720" transform="translate(137,44)"/>
<path d="M0 0 C0.66 0 1.32 0 2 0 C2.66 1.32 3.32 2.64 4 4 C4.99 3.67 5.98 3.34 7 3 C7.33 2.34 7.66 1.68 8 1 C8.33 1.66 8.66 2.32 9 3 C7.5625 5.625 7.5625 5.625 6 8 C6.66 8 7.32 8 8 8 C8 10.64 8 13.28 8 16 C6.24925985 13.37388978 4.84229231 10.81797143 3.4375 8 C3.00308594 7.13375 2.56867188 6.2675 2.12109375 5.375 C1 3 1 3 0 0 Z " fill="#A81816" transform="translate(133,32)"/>
<path d="M0 0 C0.33 0 0.66 0 1 0 C1 3.3 1 6.6 1 10 C-0.98 10 -2.96 10 -5 10 C-4.49809325 5.60831597 -2.96518146 3.24316722 0 0 Z " fill="#A41513" transform="translate(97,19)"/>
<path d="M0 0 C0 3.10551666 -0.5393715 4.35261084 -2 7 C-3.32 7 -4.64 7 -6 7 C-6 7.66 -6 8.32 -6 9 C-6.66 9 -7.32 9 -8 9 C-8 9.66 -8 10.32 -8 11 C-8.66 11 -9.32 11 -10 11 C-9.67 9.35 -9.34 7.7 -9 6 C-8.34 6 -7.68 6 -7 6 C-6.67 5.01 -6.34 4.02 -6 3 C-2.9375 1.3125 -2.9375 1.3125 0 0 Z " fill="#A80F26" transform="translate(138,62)"/>
<path d="M0 0 C0.66 0.33 1.32 0.66 2 1 C2 1.33 2 1.66 2 2 C8.93 2 15.86 2 23 2 C23 2.66 23 3.32 23 4 C14.09 4 5.18 4 -4 4 C-4 3.34 -4 2.68 -4 2 C-2.68 2 -1.36 2 0 2 C0 1.34 0 0.68 0 0 Z " fill="#9F0D21" transform="translate(166,153)"/>
<path d="M0 0 C4.42857143 5.14285714 4.42857143 5.14285714 5 9 C7.31 9 9.62 9 12 9 C12 9.33 12 9.66 12 10 C10.41705218 10.05437607 8.83355744 10.09296271 7.25 10.125 C6.36828125 10.14820312 5.4865625 10.17140625 4.578125 10.1953125 C1.8864142 9.99139502 0.30095026 9.36551721 -2 8 C-1.01 7.34 -0.02 6.68 1 6 C0.34 4.35 -0.32 2.7 -1 1 C-0.67 0.67 -0.34 0.34 0 0 Z " fill="#EE9D2B" transform="translate(92,88)"/>
<path d="M0 0 C0.4846875 0.37511719 0.969375 0.75023438 1.46875 1.13671875 C5.6031601 4.29318185 9.79496503 7.18934874 14.234375 9.8984375 C16.24773348 11.15455938 18.13971226 12.52727221 20 14 C12.76607755 13.62902962 7.0281511 9.10925787 1.9375 4.25 C0 2 0 2 0 0 Z " fill="#FAB249" transform="translate(67,81)"/>
<path d="M0 0 C0.66 0 1.32 0 2 0 C2.33 0.99 2.66 1.98 3 3 C3.66 2.01 4.32 1.02 5 0 C5.66 0 6.32 0 7 0 C7 2.31 7 4.62 7 7 C5.02 7 3.04 7 1 7 C0.67 4.69 0.34 2.38 0 0 Z " fill="#B10A2D" transform="translate(102,60)"/>
<path d="M0 0 C0 3.90838866 -1.50567876 5.11594107 -4 8 C-3.34 8.66 -2.68 9.32 -2 10 C-4.64 11.98 -7.28 13.96 -10 16 C-8.54362142 9.68902614 -4.53448771 4.53448771 0 0 Z " fill="#AB2E08" transform="translate(72,28)"/>
<path d="M0 0 C0.33 0 0.66 0 1 0 C1.05384521 2.29141286 1.09272087 4.58318188 1.125 6.875 C1.14820313 8.15117187 1.17140625 9.42734375 1.1953125 10.7421875 C1 14 1 14 -1 16 C-3.1640625 16.1953125 -3.1640625 16.1953125 -5.625 16.125 C-6.44226563 16.10695312 -7.25953125 16.08890625 -8.1015625 16.0703125 C-8.72804688 16.04710937 -9.35453125 16.02390625 -10 16 C-10.33 15.34 -10.66 14.68 -11 14 C-10.36191406 13.93941406 -9.72382812 13.87882813 -9.06640625 13.81640625 C-8.24011719 13.73261719 -7.41382813 13.64882812 -6.5625 13.5625 C-5.73878906 13.48128906 -4.91507813 13.40007812 -4.06640625 13.31640625 C-2.01337975 13.21069185 -2.01337975 13.21069185 -1 12 C-0.76572222 9.98405418 -0.58663876 7.961526 -0.4375 5.9375 C-0.35371094 4.83277344 -0.26992187 3.72804687 -0.18359375 2.58984375 C-0.12300781 1.73519531 -0.06242188 0.88054687 0 0 Z " fill="#9D2B04" transform="translate(136,170)"/>
<path d="M0 0 C0.66 0 1.32 0 2 0 C2 4.95 2 9.9 2 15 C0.02 15.99 0.02 15.99 -2 17 C-2.33 17.66 -2.66 18.32 -3 19 C-4.32 18.67 -5.64 18.34 -7 18 C-5.824375 17.1028125 -5.824375 17.1028125 -4.625 16.1875 C-1.85425677 14.08914751 -1.85425677 14.08914751 0 11 C0.24187651 8.25481679 0.24187651 8.25481679 0.125 5.3125 C0.10695313 4.31863281 0.08890625 3.32476562 0.0703125 2.30078125 C0.04710938 1.54152344 0.02390625 0.78226562 0 0 Z " fill="#9D1932" transform="translate(67,111)"/>
<path d="M0 0 C1.98 0.99 1.98 0.99 4 2 C3.48594831 6.96916636 2.76615118 11.29026351 1 16 C0.67 16 0.34 16 0 16 C0 10.72 0 5.44 0 0 Z " fill="#9C0E27" transform="translate(46,132)"/>
<path d="M0 0 C1.65 0 3.3 0 5 0 C4.125 4.875 4.125 4.875 3 6 C1.33382885 6.04063832 -0.33388095 6.042721 -2 6 C-1.34 4.02 -0.68 2.04 0 0 Z " fill="#AF1720" transform="translate(111,85)"/>
<path d="M0 0 C1.32 0 2.64 0 4 0 C4 1.32 4 2.64 4 4 C3.34 4 2.68 4 2 4 C2 4.66 2 5.32 2 6 C0.35 6.33 -1.3 6.66 -3 7 C-2.25 2.25 -2.25 2.25 0 0 Z " fill="#AD1620" transform="translate(67,41)"/>
<path d="M0 0 C3.63 0 7.26 0 11 0 C10.67 0.99 10.34 1.98 10 3 C6.37 3 2.74 3 -1 3 C-0.67 2.01 -0.34 1.02 0 0 Z " fill="#FCFBFC" transform="translate(134,136)"/>
<path d="M0 0 C4.61513112 1.31860889 8.09897612 3.21355437 12 6 C11.01 6.495 11.01 6.495 10 7 C9.34 6.67 8.68 6.34 8 6 C8.33 7.32 8.66 8.64 9 10 C5.73991357 6.83047153 2.77762123 3.60062011 0 0 Z " fill="#A82F09" transform="translate(113,21)"/>
<path d="M0 0 C0.66 0 1.32 0 2 0 C2.33 0.66 2.66 1.32 3 2 C5.52733235 2.65555119 5.52733235 2.65555119 8 3 C4.47320901 5.35119399 2.97120515 5.21443452 -1.1875 5.125 C-2.27417969 5.10695313 -3.36085938 5.08890625 -4.48046875 5.0703125 C-5.72763672 5.03550781 -5.72763672 5.03550781 -7 5 C-4 3 -4 3 -1 2 C-0.67 1.34 -0.34 0.68 0 0 Z " fill="#FBBC31" transform="translate(104,92)"/>
<path d="M0 0 C0.99 0 1.98 0 3 0 C2.93489583 2.01822917 2.86979167 4.03645833 2.8046875 6.0546875 C2.81668311 8.23863645 2.81668311 8.23863645 5 10 C4.01 10.33 3.02 10.66 2 11 C1.34 11.66 0.68 12.32 0 13 C0 8.71 0 4.42 0 0 Z " fill="#F8BC20" transform="translate(58,52)"/>
<path d="M0 0 C5.84615385 5.53846154 5.84615385 5.53846154 7 9 C6.67 9.99 6.34 10.98 6 12 C5.4225 11.2575 4.845 10.515 4.25 9.75 C2.27746474 7.33912357 0.23955718 5.15957299 -2 3 C-1.34 2.67 -0.68 2.34 0 2 C0 1.34 0 0.68 0 0 Z " fill="#A9340A" transform="translate(130,33)"/>
<path d="M0 0 C0.66 0 1.32 0 2 0 C1.6875 2.875 1.6875 2.875 1 6 C-2 8 -2 8 -4.1875 7.625 C-4.785625 7.41875 -5.38375 7.2125 -6 7 C-5.04882866 5.8274869 -4.08882991 4.66212985 -3.125 3.5 C-2.59132813 2.8503125 -2.05765625 2.200625 -1.5078125 1.53125 C-0.76144531 0.77328125 -0.76144531 0.77328125 0 0 Z " fill="#AA1224" transform="translate(73,29)"/>
<path d="M0 0 C2.5 2.3125 2.5 2.3125 5 5 C5 5.99 5 6.98 5 8 C1.7 7.01 -1.6 6.02 -5 5 C-4.67 4.01 -4.34 3.02 -4 2 C-4 2.66 -4 3.32 -4 4 C-2.35 4 -0.7 4 1 4 C0.67 2.68 0.34 1.36 0 0 Z " fill="#A62C08" transform="translate(114,25)"/>
<path d="M0 0 C1.7074998 1.28062485 3.37373596 2.61767557 5 4 C5 4.66 5 5.32 5 6 C2.29120665 7.35439668 -0.00933268 7.06501451 -3 7 C-2.01 4.69 -1.02 2.38 0 0 Z " fill="#A72039" transform="translate(49,142)"/>
<path d="M0 0 C3 3 6 6 9 9 C4.38486888 7.68139111 0.90102388 5.78644563 -3 3 C-2.01 2.67 -1.02 2.34 0 2 C0 1.34 0 0.68 0 0 Z " fill="#A73107" transform="translate(78,85)"/>
<path d="M0 0 C0.66 0 1.32 0 2 0 C2 2.64 2 5.28 2 8 C2.66 8.33 3.32 8.66 4 9 C3.34 9.66 2.68 10.32 2 11 C1.67 11.99 1.34 12.98 1 14 C-2 10.25 -2 10.25 -2 8 C-1.34 7.67 -0.68 7.34 0 7 C0 4.69 0 2.38 0 0 Z " fill="#F6B322" transform="translate(74,170)"/>
<path d="M0 0 C0.33 0 0.66 0 1 0 C1 3.63 1 7.26 1 11 C1.66 11 2.32 11 3 11 C2.67 11.99 2.34 12.98 2 14 C1.01 13.67 0.02 13.34 -1 13 C-1.02708567 11.39592672 -1.04643483 9.7917215 -1.0625 8.1875 C-1.07410156 7.29417969 -1.08570312 6.40085938 -1.09765625 5.48046875 C-1 3 -1 3 0 0 Z " fill="#A71318" transform="translate(125,171)"/>
<path d="M0 0 C0.33 0.99 0.66 1.98 1 3 C1.66 3.33 2.32 3.66 3 4 C1.71475739 4.86380259 0.42157581 5.71580369 -0.875 6.5625 C-1.59429687 7.03816406 -2.31359375 7.51382813 -3.0546875 8.00390625 C-3.69664063 8.33261719 -4.33859375 8.66132812 -5 9 C-5.66 8.67 -6.32 8.34 -7 8 C-4.69 5.36 -2.38 2.72 0 0 Z " fill="#A52708" transform="translate(121,84)"/>
<path d="M0 0 C4.75 1.875 4.75 1.875 7 3 C7 3.99 7 4.98 7 6 C7.99 6 8.98 6 10 6 C10 6.99 10 7.98 10 9 C8.68 8.67 7.36 8.34 6 8 C6 7.01 6 6.02 6 5 C5.01 5 4.02 5 3 5 C3 4.34 3 3.68 3 3 C2.34 3 1.68 3 1 3 C0.67 2.01 0.34 1.02 0 0 Z " fill="#AE0D27" transform="translate(68,78)"/>
<path d="M0 0 C0.66 0 1.32 0 2 0 C3.125 5.625 3.125 5.625 2 9 C1.34 9 0.68 9 0 9 C-0.33 9.66 -0.66 10.32 -1 11 C-2.35179673 7.35014884 -1.55313497 5.47171347 0 2 C0 1.34 0 0.68 0 0 Z " fill="#F4B025" transform="translate(138,60)"/>
<path d="M0 0 C0.33 0 0.66 0 1 0 C1 2.97 1 5.94 1 9 C-1.64 9 -4.28 9 -7 9 C-7 8.34 -7 7.68 -7 7 C-5.02 7 -3.04 7 -1 7 C-0.67 4.69 -0.34 2.38 0 0 Z " fill="#A92909" transform="translate(86,36)"/>
<path d="M0 0 C7.625 0.875 7.625 0.875 11 2 C11 2.66 11 3.32 11 4 C3.57142857 4.28571429 3.57142857 4.28571429 0 2 C0 1.34 0 0.68 0 0 Z " fill="#F7B828" transform="translate(106,18)"/>
<path d="M0 0 C0.99 0.33 1.98 0.66 3 1 C2.125 5.875 2.125 5.875 1 7 C-0.99958364 7.04080783 -3.00045254 7.04254356 -5 7 C-3.68 6.67 -2.36 6.34 -1 6 C-1.020625 5.195625 -1.04125 4.39125 -1.0625 3.5625 C-1 1 -1 1 0 0 Z " fill="#A7200E" transform="translate(163,172)"/>
<path d="M0 0 C0.33 0 0.66 0 1 0 C1.04241723 2.33294775 1.04092937 4.66702567 1 7 C0 8 0 8 -2.5625 8.0625 C-3.366875 8.041875 -4.17125 8.02125 -5 8 C-5 7.01 -5 6.02 -5 5 C-4.01 4.67 -3.02 4.34 -2 4 C-0.79117904 1.99983534 -0.79117904 1.99983534 0 0 Z " fill="#B00A2A" transform="translate(96,73)"/>
<path d="M0 0 C2.475 0.99 2.475 0.99 5 2 C4.01 2.495 4.01 2.495 3 3 C4.6380249 6.51005335 6.03134491 9.45543849 9 12 C6.1875 11.625 6.1875 11.625 3 10 C1.53868671 6.76691126 0.72873963 3.46470949 0 0 Z " fill="#AB3407" transform="translate(124,37)"/>
<path d="M0 0 C0 1.33333333 0 2.66666667 0 4 C1.65 4 3.3 4 5 4 C1.31265242 6.45823172 -1.69699971 7.01242616 -6 8 C-2.25 2.25 -2.25 2.25 0 0 Z " fill="#A52908" transform="translate(84,25)"/>
<path d="M0 0 C0 0.33 0 0.66 0 1 C-1.58294782 1.05437607 -3.16644256 1.09296271 -4.75 1.125 C-5.63171875 1.14820313 -6.5134375 1.17140625 -7.421875 1.1953125 C-10.1135858 0.99139502 -11.69904974 0.36551721 -14 -1 C-12.41870971 -1.22331199 -10.83478911 -1.42804644 -9.25 -1.625 C-8.36828125 -1.74101562 -7.4865625 -1.85703125 -6.578125 -1.9765625 C-3.77140122 -2.00207817 -2.36615134 -1.44843844 0 0 Z " fill="#96152A" transform="translate(106,156)"/>
<path d="M0 0 C0 3.69418201 -1.28179295 5.77836178 -3 9 C-3.66 7.68 -4.32 6.36 -5 5 C-5.99 5 -6.98 5 -8 5 C-4.04 2.525 -4.04 2.525 0 0 Z " fill="#A82908" transform="translate(93,19)"/>
<path d="M0 0 C0 2.97 0 5.94 0 9 C-0.99 8.67 -1.98 8.34 -3 8 C-3 5.69 -3 3.38 -3 1 C-1 0 -1 0 0 0 Z " fill="#F7CA04" transform="translate(42,174)"/>
<path d="M0 0 C2.475 0.495 2.475 0.495 5 1 C5.33 2.98 5.66 4.96 6 7 C1.2 4.53846154 1.2 4.53846154 0.1875 1.8125 C0.125625 1.214375 0.06375 0.61625 0 0 Z " fill="#AE0D28" transform="translate(84,85)"/>
<path d="M0 0 C2.5654594 2.5654594 2.54046087 4.47686668 3 8 C-0.91402949 6.73058503 -2.79072873 5.48832306 -5 2 C-2.525 2.99 -2.525 2.99 0 4 C0 2.68 0 1.36 0 0 Z " fill="#A82E08" transform="translate(71,69)"/>
<path d="M0 0 C0.66 0 1.32 0 2 0 C3.7143618 1.95927063 5.38405168 3.95880212 7 6 C6.34 6.66 5.68 7.32 5 8 C2.21611025 6.29374499 1.14615794 5.52373261 0.25 2.3125 C0.1675 1.549375 0.085 0.78625 0 0 Z " fill="#B00C26" transform="translate(127,40)"/>
<path d="M0 0 C-4.75 4.875 -4.75 4.875 -7 6 C-7 5.34 -7 4.68 -7 4 C-7.99 3.67 -8.98 3.34 -10 3 C-3.375 -1.125 -3.375 -1.125 0 0 Z " fill="#A83F07" transform="translate(86,22)"/>
<path d="M0 0 C1.77706209 2.66559313 2.87548273 5.0280615 4 8 C-0.35535069 6.83857315 -2.64619703 5.92300495 -5 2 C-3.02 2.99 -3.02 2.99 -1 4 C-0.67 2.68 -0.34 1.36 0 0 Z " fill="#AA2F08" transform="translate(90,87)"/>
<path d="M0 0 C0.39832031 0.46019531 0.79664062 0.92039062 1.20703125 1.39453125 C3.29866516 3.2674322 5.01421992 3.87389302 7.6875 4.6875 C8.49574219 4.93886719 9.30398437 5.19023438 10.13671875 5.44921875 C10.75160156 5.63097656 11.36648437 5.81273438 12 6 C12 6.33 12 6.66 12 7 C10.39479996 6.93976735 8.79065673 6.85091401 7.1875 6.75 C5.84751953 6.68039063 5.84751953 6.68039063 4.48046875 6.609375 C2 6 2 6 0.17578125 3.953125 C-0.21222656 3.30859375 -0.60023437 2.6640625 -1 2 C-0.67 1.34 -0.34 0.68 0 0 Z " fill="#FDBC3D" transform="translate(75,76)"/>
<path d="M0 0 C0.99 0.33 1.98 0.66 3 1 C2.3125 3.4375 2.3125 3.4375 1 6 C-1.625 6.8125 -1.625 6.8125 -4 7 C-3.34 6.67 -2.68 6.34 -2 6 C-2.33 4.68 -2.66 3.36 -3 2 C-1.02 2.495 -1.02 2.495 1 3 C0.67 2.01 0.34 1.02 0 0 Z " fill="#AC2117" transform="translate(121,73)"/>
<path d="M0 0 C0.33 0 0.66 0 1 0 C1 3.96 1 7.92 1 12 C-1.31 11.67 -3.62 11.34 -6 11 C-6 10.67 -6 10.34 -6 10 C-4.35 9.67 -2.7 9.34 -1 9 C-0.67 6.03 -0.34 3.06 0 0 Z " fill="#A11508" transform="translate(97,71)"/>
<path d="M0 0 C3.63 0 7.26 0 11 0 C10.67 0.99 10.34 1.98 10 3 C9.34 3 8.68 3 8 3 C8 2.34 8 1.68 8 1 C5.69 1 3.38 1 1 1 C1.33 2.98 1.66 4.96 2 7 C1.34 7 0.68 7 0 7 C0 4.69 0 2.38 0 0 Z " fill="#AA2D06" transform="translate(128,58)"/>
<path d="M0 0 C1.98 0 3.96 0 6 0 C7.125 4.75 7.125 4.75 6 7 C4.02 4.69 2.04 2.38 0 0 Z " fill="#A31512" transform="translate(126,25)"/>
<path d="M0 0 C-2.475 1.485 -2.475 1.485 -5 3 C-4.67 3.66 -4.34 4.32 -4 5 C-5.32 5 -6.64 5 -8 5 C-8 3.35 -8 1.7 -8 0 C-2.25 -1.125 -2.25 -1.125 0 0 Z " fill="#FEEBEA" transform="translate(54,127)"/>
<path d="M0 0 C3.27286682 2.7819368 4.96427697 6.27954067 7 10 C6.01 10 5.02 10 4 10 C0 3.375 0 3.375 0 0 Z " fill="#F5A53D" transform="translate(61,71)"/>
<path d="M0 0 C1.32 0.33 2.64 0.66 4 1 C3.01 1 2.02 1 1 1 C1.33 1.99 1.66 2.98 2 4 C2.66 4 3.32 4 4 4 C4 4.66 4 5.32 4 6 C2.25 7.125 2.25 7.125 0 8 C-2.25 7.125 -2.25 7.125 -4 6 C-2.68 6 -1.36 6 0 6 C0 4.02 0 2.04 0 0 Z " fill="#FAC41E" transform="translate(158,180)"/>
<path d="M0 0 C0.33 0 0.66 0 1 0 C1.38922918 1.28745036 1.76098036 2.58019597 2.125 3.875 C2.33382812 4.59429687 2.54265625 5.31359375 2.7578125 6.0546875 C2.83773437 6.69664062 2.91765625 7.33859375 3 8 C2.34 8.66 1.68 9.32 1 10 C0.34 9.67 -0.32 9.34 -1 9 C-1.125 2.25 -1.125 2.25 0 0 Z " fill="#A9121E" transform="translate(35,174)"/>
<path d="M0 0 C1.9451 2.91765 2.45276317 4.62537285 3 8 C1.68 8.33 0.36 8.66 -1 9 C-0.67 6.69 -0.34 4.38 0 2 C-0.99 1.67 -1.98 1.34 -3 1 C-2.01 0.67 -1.02 0.34 0 0 Z " fill="#A31D37" transform="translate(147,141)"/>
<path d="M0 0 C5.875 2.75 5.875 2.75 7 5 C4 7 4 7 1 7 C1.33 5.35 1.66 3.7 2 2 C1.34 2 0.68 2 0 2 C0 1.34 0 0.68 0 0 Z " fill="#A81913" transform="translate(73,89)"/>
<path d="M0 0 C0 2.97 0 5.94 0 9 C-0.66 8.67 -1.32 8.34 -2 8 C-2.73075648 5.6859378 -3.40138258 3.35171131 -4 1 C-1 0 -1 0 0 0 Z " fill="#A5101A" transform="translate(98,86)"/>
<path d="M0 0 C2.16874252 0.50603992 3.99967627 0.99983813 6 2 C6 3.32 6 4.64 6 6 C3.5625 5.25 3.5625 5.25 1 4 C0.1875 1.875 0.1875 1.875 0 0 Z " fill="#AC0D28" transform="translate(65,67)"/>
<path d="M0 0 C2.31 0 4.62 0 7 0 C7 2.31 7 4.62 7 7 C6.01 7 5.02 7 4 7 C4.33 5.02 4.66 3.04 5 1 C3.35 1 1.7 1 0 1 C0 0.67 0 0.34 0 0 Z " fill="#A93205" transform="translate(64,58)"/>
<path d="M0 0 C0.66 0 1.32 0 2 0 C2 2.31 2 4.62 2 7 C-0.97 6.505 -0.97 6.505 -4 6 C-3.525625 5.566875 -3.05125 5.13375 -2.5625 4.6875 C-0.76313043 2.97690387 -0.76313043 2.97690387 0 0 Z " fill="#A90D20" transform="translate(55,54)"/>
<path d="M0 0 C5.75 1.75 5.75 1.75 8 4 C5.36 4 2.72 4 0 4 C0 2.68 0 1.36 0 0 Z " fill="#A90C28" transform="translate(129,51)"/>
<path d="M0 0 C0.33 1.32 0.66 2.64 1 4 C-0.65 4 -2.3 4 -4 4 C-4 3.34 -4 2.68 -4 2 C-4.66 1.67 -5.32 1.34 -6 1 C-4 0 -4 0 0 0 Z " fill="#AF1027" transform="translate(114,25)"/>
<path d="M0 0 C1.98 0.66 3.96 1.32 6 2 C6 2.66 6 3.32 6 4 C3.36 4 0.72 4 -2 4 C-1.34 2.68 -0.68 1.36 0 0 Z " fill="#A1182E" transform="translate(84,152)"/>
<path d="M0 0 C0.33 0.66 0.66 1.32 1 2 C1.66 2.33 2.32 2.66 3 3 C1.9375 4.5 1.9375 4.5 0 6 C-3.6875 6.1875 -3.6875 6.1875 -7 6 C-5 4 -5 4 -2.9375 3 C-0.83134399 2.15410058 -0.83134399 2.15410058 0 0 Z " fill="#FCB83C" transform="translate(123,76)"/>
<path d="M0 0 C1.98 1.65 3.96 3.3 6 5 C5.34 6.32 4.68 7.64 4 9 C0 2.25 0 2.25 0 0 Z " fill="#A53705" transform="translate(62,70)"/>
<path d="M0 0 C2.31 1.98 4.62 3.96 7 6 C6.67 6.66 6.34 7.32 6 8 C5.01 7.34 4.02 6.68 3 6 C3 5.34 3 4.68 3 4 C1.68 3.34 0.36 2.68 -1 2 C-0.67 1.34 -0.34 0.68 0 0 Z " fill="#AE0A2E" transform="translate(124,29)"/>
<path d="M0 0 C2.475 0.99 2.475 0.99 5 2 C5 6 5 6 3 9 C2.01 6.03 1.02 3.06 0 0 Z " fill="#A12138" transform="translate(160,140)"/>
<path d="M0 0 C1.32 0.33 2.64 0.66 4 1 C4 1.99 4 2.98 4 4 C1.36 4 -1.28 4 -4 4 C-2.68 3.67 -1.36 3.34 0 3 C0 2.01 0 1.02 0 0 Z " fill="#A20F29" transform="translate(140,130)"/>
<path d="M0 0 C1.98 1.65 3.96 3.3 6 5 C3.3333581 6.33332095 1.83319697 5.67102033 -1 5 C-0.67 3.35 -0.34 1.7 0 0 Z " fill="#AB2011" transform="translate(67,83)"/>
<path d="M0 0 C0.99 0 1.98 0 3 0 C2.375 1.9375 2.375 1.9375 1 4 C-2.125 4.75 -2.125 4.75 -5 5 C-5 4.34 -5 3.68 -5 3 C-3.35 3 -1.7 3 0 3 C0 2.01 0 1.02 0 0 Z " fill="#B20A30" transform="translate(82,35)"/>
<path d="M0 0 C1.32 0.33 2.64 0.66 4 1 C1.69 2.65 -0.62 4.3 -3 6 C-3 4.68 -3 3.36 -3 2 C-2.01 1.34 -1.02 0.68 0 0 Z " fill="#A81F0D" transform="translate(72,23)"/>
<path d="M0 0 C0.99 0 1.98 0 3 0 C3 1.65 3 3.3 3 5 C2.01 5.33 1.02 5.66 0 6 C0 4.02 0 2.04 0 0 Z " fill="#FDBC31" transform="translate(158,172)"/>
<path d="M0 0 C2.49361571 1.20381448 4.68143083 2.45428722 7 4 C6.01 4 5.02 4 4 4 C3.67 4.66 3.34 5.32 3 6 C0 2.25 0 2.25 0 0 Z " fill="#AD4008" transform="translate(60,62)"/>
<path d="M0 0 C0 3.51716303 -0.82445585 4.37121748 -3 7 C-3 6.01 -3 5.02 -3 4 C-3.99 3.67 -4.98 3.34 -6 3 C-4.02 2.01 -2.04 1.02 0 0 Z " fill="#AD3C05" transform="translate(138,62)"/>
<path d="M0 0 C0.66 0 1.32 0 2 0 C2.33 2.31 2.66 4.62 3 7 C2.01 6.67 1.02 6.34 0 6 C0 4.02 0 2.04 0 0 Z " fill="#AE0A2E" transform="translate(106,48)"/>
</svg>
